<?xml version="1.0" encoding="UTF-8"?>
<svg width="50px" height="50px" viewBox="0 0 50 50" version="1.1" xmlns="http://www.w3.org/2000/svg" xmlns:xlink="http://www.w3.org/1999/xlink">
    <title>Web/SVG/ai</title>
    <g id="Web/SVG/ai" stroke="none" stroke-width="1" fill="none" fill-rule="evenodd">
        <g id="Group-6" fill="#0C7DFF">
            <circle id="Oval" cx="25" cy="25" r="25"></circle>
        </g>
        <g id="Group" transform="translate(14, 12)" stroke="#FFFFFF" stroke-linejoin="round" stroke-width="1.95">
            <path d="M10.8416531,2.01429921 C9.30656774,2.14048402 7.61108755,2.59398717 5.8351961,3.59160939 C5.8351961,3.59160939 2.05757728,5.20999316 2.85612963,10.387805 C2.85612963,10.387805 3.01823533,11.8359663 2.5554428,12.5130452 L0.0532835977,15.425035 C0.0532835977,15.425035 -0.27990991,16.2901208 0.720098333,16.3726914 L2.24449071,16.6834957 C2.24449071,16.6834957 2.8817928,17.9148562 2.94637845,18.8620892 C3.01053637,19.8097456 2.78683906,20.9784372 2.78683906,20.9784372 C2.78683906,20.9784372 2.24449071,22.3990749 3.09608028,23.0228006 C3.26331861,23.0642976 3.88821683,23.7663594 8.34334338,22.8178561 C8.34334338,22.8178561 8.85361277,23.2819452 9.12692554,25.5867236" id="Path" stroke-linecap="round"></path>
            <path d="M18.7450544,25.6222924 C18.5478757,24.4794306 18.1813201,22.3596951 18.2938103,20.5499169 C18.2938103,20.5499169 18.9597696,17.5824566 20.2921159,15.6862969 C20.2921159,15.6862969 21.2215505,14.1174555 21.5624429,11.9740074" id="Path" stroke-linecap="round"></path>
            <line x1="3.13756907" y1="18.925605" x2="5.05161393" y2="18.9569395" id="Path" stroke-linecap="round"></line>
            <polyline id="Path" points="14.9105489 15.5529136 20.1856138 10.2578092 20.1856138 7.28823165"></polyline>
            <ellipse id="Oval" cx="20.1813366" cy="5.46447998" rx="1.81866341" ry="1.80046253"></ellipse>
            <ellipse id="Oval" cx="9.56918753" cy="8.42897625" rx="1.81866341" ry="1.80046253"></ellipse>
            <polyline id="Path" points="14.8031913 18.4111267 9.54908471 13.2223055 9.54908471 10.2294388"></polyline>
            <line x1="14.8759036" y1="26" x2="14.8754759" y2="3.59838442" id="Path"></line>
            <ellipse id="Oval" cx="14.8754759" cy="1.80046253" rx="1.81866341" ry="1.80046253"></ellipse>
        </g>
    </g>
</svg>