<?xml version="1.0" encoding="UTF-8"?>
<svg width="50px" height="50px" viewBox="0 0 50 50" version="1.1" xmlns="http://www.w3.org/2000/svg" xmlns:xlink="http://www.w3.org/1999/xlink">
    <title>Web/SVG/brainstorm</title>
    <g id="Web/SVG/brainstorm" stroke="none" stroke-width="1" fill="none" fill-rule="evenodd">
        <g id="Group-6" fill="#0C7DFF">
            <circle id="Oval" cx="25" cy="25" r="25"></circle>
        </g>
        <g id="Group" transform="translate(10, 7)" fill="#FFFFFF" fill-rule="nonzero" stroke="#FFFFFF">
            <path d="M23.8166776,14.3319269 C23.8356815,14.1865917 23.8404325,14.1209564 23.8451835,13.9896859 L23.8499345,13.9334271 C23.987713,11.1720581 23.1040301,8.74824191 21.3604194,7.10267229 C19.6120577,5.45241444 17.0845347,4.69292077 14.2481979,4.96015002 C8.69429882,5.4899203 4.9647772,9.15142991 4.9647772,14.0740741 C4.9647772,16.572902 5.90547182,19.3530239 7.48279817,21.5142991 C8.58502621,23.02391 9.16939712,24.8616971 9.16939712,26.8213783 L9.16939712,29.5452414 C9.16939712,29.798406 9.37368938,30 9.63024246,30 L19.6928244,30 C19.9493775,30 20.1536697,29.798406 20.1536697,29.5452414 L20.1536697,24.6929208 C20.1536697,24.4772621 20.3294561,24.3037975 20.5480013,24.3037975 L22.1918414,24.3037975 C23.2513106,24.3037975 24.1112385,23.4552274 24.1112385,22.4097515 L24.1112385,19.9578059 L25.0424312,19.8499766 C25.3369921,19.8171589 25.5887942,19.6436943 25.7265727,19.3811533 C25.8643512,19.1233005 25.8596003,18.8138772 25.7360747,18.5935302 L23.8166776,14.3319269 Z M23.5981324,19.0951711 C23.3653342,19.1233005 23.1895478,19.315518 23.1895478,19.5452414 L23.1895478,22.4003751 C23.1895478,22.94421 22.7429554,23.3849039 22.1918414,23.3849039 L20.5480013,23.3849039 C19.8211009,23.3849039 19.231979,23.9662447 19.231979,24.6835443 L19.231979,29.0904829 L10.0863368,29.0904829 L10.0863368,26.8213783 C10.0863368,24.6647914 9.44495413,22.6488514 8.22870249,20.9798406 C6.76064875,18.9685888 5.88171691,16.3853727 5.88171691,14.0693858 C5.88171691,9.63900609 9.27866972,6.33849039 14.3337156,5.86029067 C16.8992464,5.61650258 19.1702163,6.29160806 20.7190367,7.75433662 C22.2678571,9.21706517 23.0517693,11.3924051 22.9234928,13.8818565 L22.9187418,13.9428036 C22.9139908,14.0740741 22.9092398,14.1256446 22.8807339,14.3225504 C22.866481,14.4069386 22.8807339,14.496015 22.9139908,14.575715 L24.8951507,18.9357712 L23.5981324,19.0951711 Z" id="Shape" stroke-width="1.4"></path>
            <path d="M18.7521298,8.90764182 L14.5380079,8.12001875 C14.3384666,8.08251289 14.1341743,8.18096578 14.0439056,8.35911861 L10.9795216,14.2756681 C10.9082569,14.4069386 10.9130079,14.5663385 10.9842726,14.697609 C11.0555374,14.8288795 11.1885649,14.9179559 11.3405963,14.9320206 L12.7326343,15.0820441 L10.6136959,19.8640413 C10.5234273,20.0656353 10.594692,20.3000469 10.7752294,20.4219409 C10.8559961,20.4735115 10.9462647,20.5016409 11.0365334,20.5016409 C11.155308,20.5016409 11.2740826,20.4547586 11.3596003,20.3703704 L17.4361075,14.3975621 C17.559633,14.2756681 17.6023919,14.0975152 17.5501311,13.9334271 C17.4931193,13.769339 17.3505898,13.6521331 17.1795544,13.628692 L15.8112713,13.4364744 L19.0324377,9.64838256 C19.1369594,9.52648851 19.1702163,9.35771214 19.1132045,9.20300047 C19.0466907,9.0482888 18.9136632,8.93577121 18.7521298,8.90764182 Z M14.5617628,13.4786685 C14.4524902,13.6052508 14.4239843,13.7787154 14.4857471,13.9334271 C14.5475098,14.0881388 14.6852883,14.1959681 14.8515727,14.2194093 L16.1295872,14.3975621 L12.4285714,18.0356306 L13.8253604,14.8804501 C13.8823722,14.7491796 13.8776212,14.5944679 13.8016055,14.4678856 C13.7303408,14.3413033 13.5973132,14.2616034 13.4547837,14.2428504 L12.1055046,14.0975152 L14.7090433,9.07172996 L17.8114351,9.65307079 L14.5617628,13.4786685 Z" id="Shape" stroke-width="0.806909086"></path>
        </g>
    </g>
</svg>