<?xml version="1.0" encoding="UTF-8"?>
<svg width="286px" height="24px" viewBox="0 0 286 24" version="1.1" xmlns="http://www.w3.org/2000/svg" xmlns:xlink="http://www.w3.org/1999/xlink">
    <title>Web/SVG/Logo/daimler</title>
    <defs>
        <polygon id="path-1" points="0 0 286 0 286 24 0 24"></polygon>
    </defs>
    <g id="Web/SVG/Logo/daimler" stroke="none" stroke-width="1" fill="none" fill-rule="evenodd">
        <g id="Daimler_Truck_Logo" transform="translate(0, -0)">
            <g id="g81-Clipped" transform="translate(143, 12) scale(-1, 1) rotate(-180) translate(-143, -12)">
                <mask id="mask-2" fill="white">
                    <use xlink:href="#path-1"></use>
                </mask>
                <g id="path83"></g>
                <g id="g81" mask="url(#mask-2)" fill="#647C85" fill-rule="nonzero">
                    <g transform="translate(1.2819, 1.2842)">
                        <polygon id="path87" points="176.908134 21.0434708 176.908134 18.2834272 182.294131 18.2834272 182.294131 0.388091008 185.482016 0.388091008 185.482016 18.2834272 190.930572 18.2834272 190.930572 21.0434708"></polygon>
                        <path d="M221.721583,21.0595236 L221.721583,8.99441365 C221.721583,5.92384581 221.845416,5.0557137 222.371645,3.84597932 C223.485764,1.42702425 226.11691,0 229.490931,0 C232.864951,0 235.496097,1.42702425 236.6106,3.84597932 C237.13683,5.02476402 237.260791,5.92384581 237.260791,8.99441365 L237.260791,21.0595236 L234.072137,21.0595236 L234.072137,9.05669827 C234.072137,6.85439096 234.010349,6.14113568 233.731915,5.36585261 C233.174535,3.75313028 231.62687,2.79137861 229.490931,2.79137861 C227.540742,2.79137861 226.024356,3.59773977 225.405059,4.99342908 C225.002792,5.86194645 224.909852,6.57507331 224.909852,9.05669827 L224.909852,21.0595236 L221.721583,21.0595236 Z" id="path89"></path>
                        <path d="M260.527558,14.9802872 C260.098114,19.1130327 257.544524,21.4315618 253.488136,21.4315618 C251.352582,21.4315618 249.34022,20.6561503 247.823833,19.2914107 C245.749298,17.3686779 244.666074,14.3908307 244.666074,10.6690353 C244.666074,4.18706791 248.163927,0 253.612098,0 C257.94615,0 260.474486,2.65409559 260.841501,7.54568609 L257.945381,7.75424327 C257.635797,4.46587188 256.119026,2.79137861 253.519031,2.79137861 C250.114244,2.79137861 248.009199,5.83099677 248.009199,10.7003703 C248.009199,15.5696154 250.114244,18.6401832 253.457242,18.6401832 C255.778547,18.6401832 257.23353,17.337343 257.728864,14.7942039 L257.945381,14.7942039 L260.527558,14.9802872 Z" id="path91"></path>
                        <polygon id="path93" points="279.046467 21.0434708 272.326117 12.7600009 271.070986 12.7600009 271.070986 21.0434708 267.886691 21.0434708 267.886691 0.387705743 271.070986 0.387705743 271.070986 10.0031677 272.091012 10.0031677 279.263112 0.387705743 283.436155 0.387705743 274.749463 11.3813917 282.787117 21.0434708"></polygon>
                        <path d="M199.396901,0.388091008 L202.580812,0.388091008 L202.580812,8.68761371 L205.764467,8.68761371 L210.432075,0.388091008 L214.20362,0.388091008 L209.133744,9.21324458 C211.730406,10.2664327 213.059632,12.217932 213.059632,14.9118384 C213.059632,17.2962479 211.885519,19.2783117 209.937509,20.2073158 C208.54688,20.8575159 207.24842,21.043214 203.817867,21.043214 C202.366475,21.0410308 200.739202,21.0773742 199.396901,20.7355151 L199.396901,0.388091008 Z M203.847993,18.2874082 C206.599511,18.2874082 207.279315,18.1943023 208.144613,17.7603647 C209.164895,17.2652983 209.752143,16.2430599 209.752143,14.9424028 C209.752143,13.4250979 209.010167,12.2794461 207.742986,11.8145588 C206.908711,11.5051904 206.228523,11.443291 204.002721,11.443291 L202.580812,11.443291 L202.580812,18.287023 L203.847993,18.2874082 Z" id="path95"></path>
                        <polygon id="path97" points="49.2117252 0.387705743 52.4269152 0.387705743 52.4269152 21.043214 49.2117252 21.043214"></polygon>
                        <polygon id="path99" points="95.946776 21.043214 95.946776 0.387705743 107.898012 0.387705743 108.095684 3.14376833 99.2237547 3.14376833 99.2237547 21.043214"></polygon>
                        <polygon id="path101" points="120.059868 12.4651442 120.059868 18.2867661 129.086269 18.2867661 128.888981 21.043214 116.875572 21.043214 116.875572 0.387705743 129.136392 0.387705743 129.33368 3.14376833 120.059868 3.14376833 120.059868 9.7086963 125.683149 9.7086963 125.683149 12.4651442"></polygon>
                        <path d="M29.8222619,21.0428287 L22.775149,0.387705743 L26.0539223,0.387705743 L27.6005619,5.22163481 L35.1166021,5.22163481 L36.6319627,0.387705743 L39.942015,0.387705743 L32.9152846,21.0428287 L29.8222619,21.0428287 Z M34.2815577,7.97923846 L28.4358626,7.97923846 L31.3436476,17.2746731 L34.2815577,7.97923846 Z" id="path103"></path>
                        <polygon id="path105" points="64.6576101 21.0384624 63.4399119 0.392457353 66.3748736 0.392457353 67.3883616 16.689326 73.479032 0.392457353 75.1166881 0.392457353 81.2382529 16.689326 82.2509718 0.392457353 85.186318 0.392457353 83.9686198 21.0384624 79.8363424 21.0384624 74.2980524 6.42918602 68.8207818 21.0384624"></polygon>
                        <path d="M138.411358,0.387705743 L141.595269,0.387705743 L141.595269,8.68722844 L144.778796,8.68722844 L149.446404,0.387705743 L153.217948,0.387705743 L148.148073,9.21285931 C150.744735,10.2660474 152.073961,12.2175467 152.073961,14.9114531 C152.073961,17.2958627 150.899976,19.2779264 148.951838,20.2069305 C147.561209,20.8571306 146.262877,21.0428287 142.832196,21.0428287 C141.380804,21.0406455 139.753659,21.0769889 138.411358,20.7351298 L138.411358,0.387705743 Z M142.862322,18.287023 C145.61384,18.287023 146.293772,18.1939171 147.158941,17.7599795 C148.179352,17.264913 148.766472,16.2426746 148.766472,14.9420175 C148.766472,13.4247127 148.024495,12.2790608 146.757443,11.8143019 C145.92304,11.5048051 145.242852,11.4429058 143.017178,11.4429058 L141.595269,11.4429058 L141.595269,18.2867661 L142.862322,18.287023 Z" id="path107"></path>
                        <path d="M-8.57768438e-16,20.7384688 L-8.57768438e-16,0.388091008 L3.74065003,0.388091008 C8.03765446,0.388091008 9.44930758,0.624258899 11.1906712,1.59589906 C14.0541016,3.19436656 15.7263696,6.63992637 15.7263696,10.7275957 C15.7263696,14.8466 13.9435999,18.430085 11.0049206,20.0019691 C9.43328355,20.8428758 7.66628149,21.0428287 4.17342709,21.0428287 C2.9830338,21.0428287 1.10065871,21.034096 -8.57768438e-16,20.7384688 Z M3.18429564,3.14415359 L3.18429564,18.3606087 L4.08074409,18.3606087 C7.45040573,18.3606087 8.31595985,18.2346268 9.55250235,17.4625543 C11.4366721,16.2853107 12.4188812,13.8244901 12.4188812,10.7585454 C12.4188812,7.69272918 11.5002555,5.27955309 9.76876268,4.13544231 C8.59541896,3.36041609 7.54308873,3.14415359 4.8536152,3.14415359 L3.18429564,3.14415359 Z" id="path109"></path>
                    </g>
                </g>
            </g>
        </g>
    </g>
</svg>