<?xml version="1.0" encoding="UTF-8"?>
<svg width="50px" height="50px" viewBox="0 0 50 50" version="1.1" xmlns="http://www.w3.org/2000/svg" xmlns:xlink="http://www.w3.org/1999/xlink">
    <title>Web/SVG/design</title>
    <g id="Web/SVG/design" stroke="none" stroke-width="1" fill="none" fill-rule="evenodd">
        <g id="Group-6" fill="#0C7DFF">
            <circle id="Oval" cx="25" cy="25" r="25"></circle>
        </g>
        <g id="Group" transform="translate(14, 13)" fill="#FFFFFF" fill-rule="nonzero">
            <path d="M20.6988107,23.2 L20.712954,23.1912 L17.9801421,18.4832 C17.9801421,18.4832 18.4201579,18.2904 18.7250259,18.0536 C19.0558234,17.7976 19.2538305,17.4968 19.2538305,17.4968 L21.9874281,22.408 L22,22.4 L22,24 L20.6988107,23.2 Z M10.9996071,19.2 C7.86449516,19.2 5.85456623,17.8976 4.80795743,16.9544 L1.28704597,23.1912 L1.30118933,23.2 L0,24 L0,22.4 L0.0125718776,22.408 L8.03578699,8.1976 C7.44255152,7.4968 7.07089539,6.5968 7.07089539,5.6 C7.07089539,3.6648 8.42080074,2.0512 10.2138648,1.6808 L10.2138648,0 L11.7853495,0 L11.7853495,1.6808 C13.5784135,2.052 14.9283189,3.6648 14.9283189,5.6 C14.9283189,6.5968 14.5574485,7.4968 13.9649987,8.1968 L16.5854495,12.808 C16.5854495,12.808 16.2632951,13.1472 15.9631415,13.3976 C15.6747741,13.6392 15.4084074,13.792 15.4084074,13.792 L12.7816708,9.1448 C12.244223,9.4264 11.6447016,9.5992 10.9988214,9.5992 C10.3529412,9.5992 9.75341976,9.4256 9.215972,9.1456 L5.65341619,15.4552 C6.65209472,16.3872 8.43965856,17.6008 10.9988214,17.6008 C16.9696775,17.6008 19.1021822,12.0008 19.1021822,12.0008 L20.4285153,12.8 C20.4285153,12.8 18.0155006,19.2 10.9996071,19.2 Z M10.9996071,3.2 C12.3015822,3.2 13.3568342,4.2744 13.3568342,5.6 C13.3568342,6.9256 12.3015822,8 10.9996071,8 C9.69763206,8 8.64238009,6.9256 8.64238009,5.6 C8.64238009,4.2744 9.69763206,3.2 10.9996071,3.2 Z" id="Shape"></path>
        </g>
    </g>
</svg>