<?xml version="1.0" encoding="UTF-8"?>
<svg width="88px" height="59px" viewBox="0 0 88 59" version="1.1" xmlns="http://www.w3.org/2000/svg" xmlns:xlink="http://www.w3.org/1999/xlink">
    <title>Web/SVG/Logo/intel</title>
    <g id="Web/SVG/Logo/intel" stroke="none" stroke-width="1" fill="none" fill-rule="evenodd">
        <g id="Group" fill="#647C85">
            <path d="M62.3163634,47.944067 C61.5224659,48.2423554 60.7432985,48.4375173 59.9576269,48.7519557 C58.782276,49.2220566 56.4124441,49.8678616 55.1022263,50.153697 C53.4153375,50.5216444 51.8108994,50.9882429 50.0432818,51.3482125 C48.2203783,51.7192731 46.5964275,51.9191049 44.7036993,52.2570873 C42.9531074,52.569969 40.8805567,52.6781545 39.0126976,52.808911 C37.0620053,52.9455049 35.037471,53.0328705 32.9264688,53.0328705 L32.4864774,53.0328705 C24.9716158,53.0328705 17.802243,51.8307664 12.7846194,49.2782897 C7.95829647,46.8229075 3.446663,42.2721127 3.446663,34.982046 L3.446663,34.3107513 C3.446663,30.8813106 4.48236448,28.2465273 5.45608455,25.7629312 C5.88345011,24.6727096 6.68939956,23.2832267 7.3038571,22.3465273 C7.68779741,21.7612361 7.9996174,21.3353044 8.40268777,20.7790053 C8.76309811,20.2818581 9.32456539,19.7461843 9.60654248,19.3181123 L9.60654248,16.9312216 C8.43731318,17.7276301 7.2083981,19.2943737 6.21650446,20.3454851 C5.091083,21.5380549 4.25662976,22.8681914 3.32920443,24.2709056 C1.95241397,26.3526977 0,31.1973056 0,34.6088451 L0,36.9959303 C0,41.2069916 1.64212439,44.9504815 3.31428298,47.4984829 C5.20701117,50.3832993 7.72873574,52.0899446 10.6185227,53.9429127 C12.8984433,55.4049733 17.502475,57.0267825 20.6124489,57.6515731 C24.4463043,58.421519 28.3155503,59 32.9266601,59 L35.1998852,59 C49.3712427,59 63.7694828,54.8148176 73.0399101,49.8256382 L73.0399101,43.0379724 C70.5315766,44.3879559 67.4432196,46.1704868 64.5475023,47.0801398 C63.9317057,47.2739397 62.9612377,47.701428 62.3163634,47.944067 Z M87.6038164,16.8123343 C87.4656974,16.0320757 87.1877376,15.0360299 86.9224037,14.3723237 C86.2599297,12.7152958 85.7097492,11.5951092 84.7193859,10.2729503 C82.8878739,7.82671328 80.7060905,6.05897038 77.9779526,4.52413759 C72.9697028,1.70683992 65.3467563,0 57.5663694,0 L56.9063823,0 C48.8782611,0 42.2385997,1.35796122 35.9629833,3.16286854 C34.3055549,3.63958512 32.9574595,4.13167337 31.4136636,4.65197546 C30.1355843,5.08257701 28.2644731,5.80368379 27.1076783,6.38858585 C25.7364356,7.08186795 24.3688276,7.6774718 23.0264712,8.35382561 C22.3154069,8.71243322 19.5849733,10.41149 19.1400081,10.517146 L19.1400081,12.3070708 C19.7450919,12.1638612 21.973744,10.911556 22.8303881,10.5408845 C24.0189388,10.0268089 25.5108922,9.26367324 26.7078601,8.89086142 C27.2505799,8.72177297 28.1475884,8.37639668 28.6860996,8.14309742 C29.3397738,7.85959699 30.0229082,7.68622782 30.7175207,7.44962074 C32.0415122,6.99819933 33.521605,6.48879362 34.9219254,6.13193721 C37.9385447,5.36257503 40.5966666,4.73797903 43.896602,4.14626674 C46.7083383,3.64230921 50.6629044,3.1329035 53.8270164,3.1329035 L57.1269519,3.1329035 C63.5517827,3.1329035 70.5074727,4.63349053 74.628279,6.96259152 C77.1285779,8.37600752 78.8087711,9.56507486 80.5331548,11.7719807 C81.8328511,13.4352351 83.4533585,16.7527934 83.4533585,19.691897 L83.4533585,20.9599631 C83.4533585,24.0578425 81.8711112,27.3892158 80.5503718,29.1956797 C79.7493962,30.2909604 78.9558813,31.2669646 77.9727875,32.1680562 C77.4949186,32.6062463 75.2632057,34.4080404 74.7264162,34.5350999 L74.7264162,39.4579282 C75.7602047,39.3707572 78.8707525,37.3335235 79.6701978,36.7293582 C81.1430211,35.6150089 82.4626127,34.3333223 83.586695,32.8809907 C84.865157,31.2298001 85.5546044,30.0195238 86.4843253,27.9962997 C86.9053779,27.0806147 87.1487123,26.1398292 87.4553672,25.1052569 C87.5797126,24.6853572 87.9913915,21.7197909 88,21.7059759 L88,19.5428501 C87.9747483,19.5025724 87.6585284,17.1222973 87.6038164,16.8123343 Z M64.4595041,31.8495317 L64.4595041,29.8354528 C64.4595041,27.4631555 63.6254334,25.1784183 62.6061838,23.8142306 C61.6385853,22.5193127 59.6758411,21.0340974 57.4929099,21.0340974 L56.0996676,21.0340974 C53.7931562,21.0340974 51.7060666,22.5066651 50.5800713,23.7739529 C49.4303546,25.0678979 48.4730864,27.5320361 48.4730864,29.9846943 L48.4730864,30.8799486 C48.4730864,36.0080569 51.5664172,39.7558275 56.6129271,39.7558275 L57.5661781,39.7558275 C59.0937134,39.7558275 60.1847007,39.3795132 61.2777924,38.9070774 C62.4682561,38.392418 63.0735312,37.5162324 63.9648007,36.9015599 L61.0859179,34.1617044 C60.5189029,35.023102 58.9479423,35.8773003 57.4927186,35.8773003 L56.686004,35.8773003 C54.7772065,35.8773003 53.0195366,34.2266935 53.0195366,32.371585 L53.0195366,31.8493371 L64.4595041,31.8493371 L64.4595041,31.8495317 Z M53.0197279,28.1945749 C53.0197279,26.5134193 54.6312442,24.838101 56.319472,24.838101 L56.6861953,24.838101 C58.6036012,24.838101 59.9130539,26.4920157 59.9130539,28.3438164 L59.9130539,28.7168228 L53.0197279,28.7168228 L53.0197279,28.1945749 Z M36.0796767,39.4575391 L36.0796767,26.7027439 C36.0796767,23.6762747 34.0547598,21.3321911 31.0930438,21.3321911 L21.4130419,21.3321911 L21.4130419,39.4573445 L25.8864153,39.4573445 L25.8864153,25.0616714 L29.9196059,25.0616714 C30.8083885,25.0616714 31.5330352,25.7615692 31.5330352,26.6282204 L31.5330352,39.4575391 L36.0796767,39.4575391 L36.0796767,39.4575391 Z M39.3796121,16.3348394 L39.3796121,34.0869863 C39.3796121,37.1502309 41.3377651,39.4575391 44.2929769,39.4575391 L47.3731079,39.4575391 L47.3731079,35.5788174 L45.0996915,35.5788174 C44.4263134,35.5788174 43.9264449,34.7863004 43.9264449,34.0869863 L43.9264449,25.0616714 L47.3731079,25.0616714 L47.3731079,21.3321911 L43.9264449,21.3321911 L43.9264449,16.3348394 L39.3796121,16.3348394 L39.3796121,16.3348394 Z M71.6462852,39.3084922 L71.6462852,13.7990964 L67.0996437,13.7990964 L67.0996437,35.0569586 C67.0996437,36.2950597 67.8369162,37.4179705 68.4733733,38.0604676 C68.8152275,38.4052602 69.3550778,38.6899281 69.8557115,38.8922894 C70.556063,39.1757899 70.9181951,39.1359013 71.6462852,39.3084922 Z M17.3798513,39.681304 L17.3798513,21.3321911 L12.8500442,21.3327749 L12.7419594,25.5835301 L12.7597504,34.6092342 C12.7597504,37.666836 14.5220115,39.6165095 17.3798513,39.681304 Z M17.3798513,14.3954785 L12.8332098,14.3954785 L12.8332098,18.7964481 L17.3798513,18.7964481 L17.3798513,14.3954785 Z M76.0691552,15.8081162 L76.2545255,15.8081162 C76.3656711,15.8081162 76.4504173,15.8306873 76.5081901,15.8768023 C76.5919797,15.9388728 76.7017863,16.093757 76.8383749,16.340093 L77.0122672,16.6541422 L77.3986944,16.6541422 L77.1597599,16.2644021 C77.0451709,16.0795528 76.9487554,15.9480179 76.8699395,15.8692138 C76.8286186,15.8283524 76.7723762,15.7929391 76.703508,15.7637524 C76.8722351,15.7503265 77.0082498,15.6900073 77.1104044,15.5820164 C77.2125589,15.4738309 77.2634448,15.3473551 77.2634448,15.201616 C77.2634448,15.0986841 77.233028,15.0015896 77.1718119,14.9093595 C77.1104044,14.8179078 77.028719,14.7535024 76.9257993,14.7167271 C76.8228796,14.6799519 76.656448,14.6622452 76.4261221,14.6622452 L75.7531266,14.6622452 L75.7531266,16.6541422 L76.0691552,16.6541422 L76.0691552,15.8081162 Z M76.0691552,14.9319306 L76.4284177,14.9319306 C76.5831799,14.9319306 76.6885865,14.942827 76.746168,14.966371 C76.8031756,14.988942 76.8475573,15.0241607 76.8795045,15.0700811 C76.911643,15.1169745 76.9282862,15.1697052 76.9282862,15.2282732 C76.9282862,15.3205033 76.894426,15.3942484 76.8276621,15.4495086 C76.7608982,15.5047688 76.6359789,15.5333718 76.4530955,15.5333718 L76.0691552,15.5333718 L76.0691552,14.9319306 L76.0691552,14.9319306 Z M75.6459982,17.2370985 C75.9342882,17.4003496 76.2363519,17.4816833 76.5518066,17.4816833 C76.86707,17.4816833 77.1685597,17.4003496 77.457615,17.2370985 C77.745905,17.0746257 77.9708745,16.8458017 78.1304192,16.5510158 C78.2909204,16.2570081 78.3710753,15.9505475 78.3710753,15.6312446 C78.3710753,15.3090232 78.28939,14.9988655 78.1273584,14.7025229 C77.9649442,14.4052074 77.7378703,14.1773564 77.4469021,14.0174131 C77.1555513,13.8584427 76.8573137,13.7786657 76.5518066,13.7786657 C76.2461082,13.7786657 75.9472967,13.8582481 75.6567111,14.0174131 C75.3651689,14.1773564 75.1377125,14.4052074 74.9747244,14.7025229 C74.811545,14.9988655 74.7302422,15.3090232 74.7302422,15.6312446 C74.7302422,15.9505475 74.8102059,16.2570081 74.9714723,16.5510158 C75.1321648,16.8458017 75.3567517,17.0746257 75.6459982,17.2370985 Z M75.031732,15.6312446 C75.031732,15.3625322 75.099835,15.1045215 75.2366149,14.8566289 C75.3733949,14.6095145 75.5625912,14.4186333 75.804969,14.2853473 C76.0469643,14.1520612 76.2954638,14.0851263 76.5518066,14.0851263 C76.8054712,14.0851263 77.054162,14.1522558 77.2971138,14.2853473 C77.5400655,14.4184388 77.7294531,14.6095145 77.8654678,14.8566289 C78.0012913,15.1045215 78.0688204,15.3627267 78.0688204,15.6312446 C78.0688204,15.8976222 78.0020565,16.1532979 77.86872,16.3976881 C77.7353834,16.6420784 77.5482914,16.8331541 77.3070614,16.969748 C77.0658313,17.1061474 76.8138884,17.175028 76.5519979,17.175028 C76.2893422,17.175028 76.0381645,17.1061474 75.7969344,16.969748 C75.555513,16.8331541 75.3680385,16.6420784 75.2335541,16.3976881 C75.0990698,16.1531034 75.031732,15.8976222 75.031732,15.6312446 Z" id="Shape"></path>
        </g>
    </g>
</svg>