<?xml version="1.0" encoding="UTF-8"?>
<svg width="64px" height="64px" viewBox="0 0 64 64" version="1.1" xmlns="http://www.w3.org/2000/svg" xmlns:xlink="http://www.w3.org/1999/xlink">
    <title>Web/SVG/Logo/jio</title>
    <g id="Web/SVG/Logo/jio" stroke="none" stroke-width="1" fill="none" fill-rule="evenodd">
        <g id="Reliance_Jio_Logo" fill="#647C85" fill-rule="nonzero">
            <path d="M32,0 C49.673112,0 64,14.326888 64,32 C64,49.673112 49.673112,64 32,64 C14.326888,64 0,49.673112 0,32 C0,14.326888 14.326888,0 32,0 Z M22.176,19.712 L21.1093333,19.712 C19.0826667,19.712 17.9786667,20.8586667 17.9786667,23.1386667 L17.9786667,34.152 C17.9786667,36.9866667 17.0186667,37.9813333 14.7786667,37.9813333 C13.0133333,37.9813333 11.576,37.208 10.432,35.8053333 C10.32,35.6613333 8,36.7626667 8,39.4933333 C8,42.4373333 10.76,44.2426667 15.88,44.2426667 C22.104,44.2426667 25.3813333,41.1146667 25.3813333,34.264 L25.3813333,23.1333333 C25.3813333,20.8506667 24.28,19.712 22.176,19.712 Z M46.976,25.0853333 C40.9386667,25.0853333 36.92,28.9173333 36.92,34.6213333 C36.92,40.4746667 40.7893333,44.232 46.864,44.232 C52.9013333,44.232 56.8773333,40.4746667 56.8773333,34.6586667 C56.8773333,28.9173333 52.944,25.0853333 46.976,25.0853333 Z M31.8186667,25.2693333 L31.08,25.2693333 C29.28,25.2693333 27.9146667,26.1146667 27.9146667,28.696 L27.9146667,40.4826667 C27.9146667,43.096 29.2373333,43.9066667 31.1573333,43.9066667 L31.8906667,43.9066667 C33.696,43.9066667 34.984,43.0266667 34.984,40.48 L34.984,28.696 C34.984,26.0426667 33.7306667,25.2693333 31.8186667,25.2693333 Z M46.8986667,30.4666667 C49.2186667,30.4666667 50.8746667,32.1946667 50.8746667,34.6613333 C50.8746667,37.0533333 49.184,38.8213333 46.9013333,38.8213333 C44.544,38.824 42.9253333,37.096 42.9253333,34.6266667 C42.9253333,32.1946667 44.5786667,30.4666667 46.8986667,30.4666667 Z M31.4133333,16.7253333 C29.1306667,16.7253333 27.6933333,18.0133333 27.6933333,20.04 C27.6933333,22.104 29.1653333,23.392 31.52,23.392 C33.8053333,23.392 35.24,22.104 35.24,20.04 C35.24,17.9786667 33.768,16.7253333 31.4133333,16.7253333 Z" id="Combined-Shape"></path>
        </g>
    </g>
</svg>