<?xml version="1.0" encoding="UTF-8"?>
<svg width="50px" height="50px" viewBox="0 0 50 50" version="1.1" xmlns="http://www.w3.org/2000/svg" xmlns:xlink="http://www.w3.org/1999/xlink">
    <title>Web/SVG/kpi</title>
    <g id="Web/SVG/kpi" stroke="none" stroke-width="1" fill="none" fill-rule="evenodd">
        <g id="Group-6" fill="#0C7DFF">
            <circle id="Oval" cx="25" cy="25" r="25"></circle>
        </g>
        <g id="Group" transform="translate(12, 12)" stroke="#FFFFFF" stroke-linecap="round" stroke-linejoin="round" stroke-width="2.3">
            <path d="M13,0 C20.1797017,0 26,5.82029825 26,13 C26,19.4064223 21.3659196,24.7304972 15.2669575,25.8030259 C15.2565815,25.8036262 15.246244,25.8054426 15.2359023,25.8072468 C15.1253525,25.827612 15.014274,25.8453869 14.9027351,25.8617453 C14.8946511,25.8620764 14.8869617,25.8632039 14.8792702,25.8643247 C14.6479456,25.8986671 14.4142353,25.9261157 14.1787147,25.947283 C14.1464013,25.9498828 14.1137578,25.9527113 14.0810795,25.9554182 C13.9860182,25.9635124 13.8910297,25.9702909 13.7957643,25.9760434 C13.7700331,25.9774613 13.7443525,25.9789452 13.7186515,25.9803541 C13.6375319,25.9848938 13.5559318,25.9885818 13.4741393,25.9915142 C13.3163965,25.9971453 13.1585388,26 13,26 L13.3499795,25.9953803 C13.2336937,25.9984536 13.1170275,26 13,26 C12.8829725,26 12.7663063,25.9984536 12.6500205,25.9953803 C12.6091982,25.9942691 12.5678106,25.9929743 12.5264734,25.9914853 C12.4440682,25.9885818 12.3624681,25.9848938 12.2810674,25.980457 C12.2556475,25.9789452 12.2299669,25.9774613 12.2043067,25.9759024 C12.1089703,25.9702909 12.0139818,25.9635124 11.919281,25.9557188 C11.8862422,25.9527113 11.8535987,25.9498828 11.8209907,25.9469332 C11.5857647,25.9261157 11.3520544,25.8986671 11.1203231,25.8651059 C11.1130383,25.8632039 11.1053489,25.8620764 11.0976618,25.860942 C10.985726,25.8453869 10.8746475,25.827612 10.7640481,25.8084396 C10.753756,25.8054426 10.7434185,25.8036262 10.7330854,25.8017975 C4.63408037,24.7304972 0,19.4064223 0,13 C0,5.82029825 5.82029825,0 13,0 Z M13,2.6 L13,3.46666667 M5.64609067,5.64609067 L6.25891933,6.25891933 M2.6,13 L3.46666667,13 M23.4,13 L22.5333333,13 M20.3539093,5.64609067 L19.7410893,6.25891933 M13,17.3333333 L21.6666667,9.53333333" id="Combined-Shape"></path>
        </g>
    </g>
</svg>