<?xml version="1.0" encoding="UTF-8"?>
<svg width="300px" height="38px" viewBox="0 0 300 38" version="1.1" xmlns="http://www.w3.org/2000/svg" xmlns:xlink="http://www.w3.org/1999/xlink">
    <title>Web/SVG/logo</title>
    <defs>
        <linearGradient x1="66.4141471%" y1="23.7431353%" x2="37.4720182%" y2="76.7736987%" id="linearGradient-1">
            <stop stop-color="#008BFC" offset="0%"></stop>
            <stop stop-color="#00DEFE" offset="100%"></stop>
        </linearGradient>
        <linearGradient x1="67.8006082%" y1="0%" x2="24.3647423%" y2="100%" id="linearGradient-2">
            <stop stop-color="#FFFFFF" offset="0%"></stop>
            <stop stop-color="#FFFFFF" stop-opacity="0.758777112" offset="100%"></stop>
        </linearGradient>
    </defs>
    <g id="Web/SVG/logo" stroke="none" stroke-width="1" fill="none" fill-rule="evenodd">
        <g id="Group-9">
            <g id="Group-45">
                <path d="M29.1031331,0.52068899 C30.4390184,0.580111954 31.1934793,0.615491927 31.3665157,0.626828909 C31.3665157,0.626828909 31.3665157,0.626828909 31.3665157,0.626828909 C37.8678934,1.05278543 42.7929953,6.66849932 42.3670388,13.169877 C42.2502952,14.9517345 41.7305693,16.6838405 40.8470403,18.2356207 L34.3210747,29.7016155 C31.4705544,34.7083048 26.0116294,37.6479966 20.2626102,37.2722549 C19.4329907,37.2177507 18.5886601,37.1648189 17.7296282,37.1133068 C17.7296282,37.1133068 17.7296282,37.1133068 17.7296282,37.1133068 C11.0223287,36.6120273 5.99135548,30.7683193 6.49263507,24.0610197 C6.6047865,22.5603937 6.99407892,21.0935481 7.64079133,19.7347915 L11.848075,10.8902068 C14.9938731,4.28073577 21.7904105,0.196279243 29.1031379,0.520580389 Z" id="Rectangle" fill="url(#linearGradient-1)"></path>
                <path d="M29.822112,5 C30.7927159,5 31.7540847,5.18847425 32.6528402,5.55495808 C36.4868038,7.11832611 38.3274852,11.4937279 36.7641172,15.3276915 C36.3470502,16.3504959 35.1798038,16.8415431 34.1569993,16.4244761 C33.1341949,16.0074091 32.6431477,14.8401627 33.0602147,13.8173583 C33.7894487,12.0290035 32.9308617,9.98809456 31.142507,9.25886055 C30.7232819,9.08791394 30.2748508,9 29.822112,9 L29.3785324,9 C24.9210007,9 20.8790501,11.6177356 19.05589,15.6853733 L15.35939,23.9326046 C14.5469989,25.7451238 15.3577629,27.8730341 17.1702821,28.6854252 C17.6329481,28.8927972 18.1342325,29 18.6412464,29 L18.6876955,29 C21.7873095,29 24.6856572,27.7310578 26.7731571,25.5875757 L26.884,25.471 L23.2098873,25.7568742 C22.1587001,25.8386305 21.2342335,25.0921894 21.0778701,24.0663655 L21.0608269,23.917978 C20.9751775,22.8167341 21.7984794,21.854567 22.8997232,21.7689176 L30.649774,21.1661558 L34.0107606,20.9047544 L32.6291843,23.9797843 C30.1629883,29.468896 24.7053753,33 18.6876955,33 L18.6412464,33 C17.5703249,33 16.5115051,32.7735649 15.5342555,32.3355508 C11.7058276,30.6196072 9.99332071,26.125006 11.7092643,22.296578 L15.4057644,14.0493467 C17.8736008,8.54337687 23.3448005,5 29.3785324,5 L29.822112,5 Z" id="Path-2-Copy-3" fill="url(#linearGradient-2)" fill-rule="nonzero"></path>
            </g>
            <path d="M68.352,29.448 C71.84,29.448 74.656,28.008 76.192,25.192 L76.192,29 L79.488,29 L79.488,16.712 L68.928,16.712 L68.928,19.688 L76.096,19.688 C75.968,21.736 75.2,23.336 73.824,24.52 C72.416,25.704 70.752,26.312 68.832,26.312 C66.656,26.312 64.864,25.544 63.456,24.008 C62.016,22.504 61.312,20.456 61.312,17.896 C61.312,15.432 61.984,13.384 63.36,11.816 C64.704,10.248 66.432,9.48 68.576,9.48 C72,9.48 74.144,11.176 75.04,14.536 L78.56,13.544 C77.408,8.904 73.92,6.312 68.64,6.312 C65.44,6.312 62.784,7.4 60.704,9.576 C58.624,11.784 57.568,14.536 57.568,17.896 C57.568,21.288 58.592,24.072 60.608,26.216 C62.624,28.36 65.216,29.448 68.352,29.448 Z M87.552,29 L87.552,21.288 C87.552,18.184 88.928,16.104 90.72,16.104 C92.032,16.104 92.704,16.904 92.704,18.504 C92.704,18.728 92.672,19.144 92.576,19.784 L95.744,20.104 C96.032,19.272 96.16,18.472 96.16,17.704 C96.16,14.984 94.336,13.224 91.872,13.224 C89.792,13.224 88.32,14.216 87.456,16.168 L87.456,13.48 L84.096,13.48 L84.096,29 L87.552,29 Z M110.336,23.496 C109.28,25.544 107.776,26.568 105.824,26.568 C103.168,26.568 101.504,24.84 101.28,22.024 L112.864,22.024 C112.896,21.864 112.896,21.544 112.896,21 C112.896,18.6 112.256,16.68 110.944,15.24 C109.632,13.8 107.84,13.096 105.568,13.096 C103.296,13.096 101.408,13.864 99.904,15.368 C98.4,16.872 97.632,18.824 97.632,21.224 C97.632,23.656 98.4,25.608 99.936,27.112 C101.472,28.616 103.424,29.384 105.792,29.384 C109.152,29.384 111.584,27.912 113.056,25 L110.336,23.496 Z M105.472,15.816 C107.808,15.816 109.12,17.192 109.344,19.656 L101.312,19.656 C101.6,17.256 103.2,15.816 105.472,15.816 Z M121.472,29.384 C123.456,29.384 125.024,28.616 126.144,27.048 L126.144,29 L129.504,29 L129.504,19.432 C129.504,15.304 126.976,13.096 122.88,13.096 C119.136,13.096 116.512,15.144 115.648,18.472 L118.816,19.144 C119.328,17 120.64,15.912 122.752,15.912 C124.832,15.912 126.016,17.192 126.016,19.4 L126.016,21.288 C124.8,20.168 123.296,19.592 121.536,19.592 C119.808,19.592 118.368,20.072 117.248,21 C116.096,21.96 115.52,23.112 115.52,24.488 C115.52,27.464 117.92,29.384 121.472,29.384 Z M122.112,26.824 C120.288,26.824 119.104,25.864 119.104,24.456 C119.104,23.08 120.32,22.12 122.112,22.12 C123.648,22.12 124.96,22.76 126.016,24.04 L126.016,24.52 C124.96,26.056 123.648,26.824 122.112,26.824 Z M138.976,29.384 C141.408,29.384 143.296,27.912 144.608,25 L141.92,23.624 C141.12,25.416 140.256,26.312 139.264,26.312 C138.208,26.312 137.696,25.608 137.696,24.168 L137.696,16.392 L143.872,16.392 L143.872,13.48 L137.696,13.48 L137.696,8.904 L135.104,8.904 L134.304,13.48 L131.808,13.48 L131.808,16.392 L134.208,16.392 L134.208,24.264 C134.208,27.688 135.808,29.384 138.976,29.384 Z M158.496,23.496 C157.44,25.544 155.936,26.568 153.984,26.568 C151.328,26.568 149.664,24.84 149.44,22.024 L161.024,22.024 C161.056,21.864 161.056,21.544 161.056,21 C161.056,18.6 160.416,16.68 159.104,15.24 C157.792,13.8 156,13.096 153.728,13.096 C151.456,13.096 149.568,13.864 148.064,15.368 C146.56,16.872 145.792,18.824 145.792,21.224 C145.792,23.656 146.56,25.608 148.096,27.112 C149.632,28.616 151.584,29.384 153.952,29.384 C157.312,29.384 159.744,27.912 161.216,25 L158.496,23.496 Z M153.632,15.816 C155.968,15.816 157.28,17.192 157.504,19.656 L149.472,19.656 C149.76,17.256 151.36,15.816 153.632,15.816 Z M168.096,29 L168.096,21.288 C168.096,18.184 169.472,16.104 171.264,16.104 C172.576,16.104 173.248,16.904 173.248,18.504 C173.248,18.728 173.216,19.144 173.12,19.784 L176.288,20.104 C176.576,19.272 176.704,18.472 176.704,17.704 C176.704,14.984 174.88,13.224 172.416,13.224 C170.336,13.224 168.864,14.216 168,16.168 L168,13.48 L164.64,13.48 L164.64,29 L168.096,29 Z M186.048,29 L189.088,17.96 L192.16,29 L195.936,29 L200.704,13.48 L197.088,13.48 L193.952,25.224 L190.816,13.48 L187.36,13.48 L184.256,25.224 L181.088,13.48 L177.472,13.48 L182.24,29 L186.048,29 Z M216.032,27.08 C217.568,25.544 218.336,23.592 218.336,21.224 C218.336,18.856 217.568,16.904 216.032,15.368 C214.496,13.864 212.576,13.096 210.24,13.096 C207.904,13.096 205.984,13.864 204.448,15.368 C202.88,16.904 202.112,18.856 202.112,21.224 C202.112,23.592 202.88,25.544 204.448,27.08 C205.984,28.616 207.904,29.384 210.24,29.384 C212.576,29.384 214.496,28.616 216.032,27.08 Z M206.976,25.128 C206.144,24.168 205.728,22.856 205.728,21.224 C205.728,17.928 207.52,15.912 210.24,15.912 C212.928,15.912 214.752,17.992 214.752,21.224 C214.752,22.856 214.336,24.168 213.536,25.128 C212.704,26.088 211.616,26.568 210.24,26.568 C208.864,26.568 207.776,26.088 206.976,25.128 Z M225.056,29 L225.056,21.288 C225.056,18.184 226.432,16.104 228.224,16.104 C229.536,16.104 230.208,16.904 230.208,18.504 C230.208,18.728 230.176,19.144 230.08,19.784 L233.248,20.104 C233.536,19.272 233.664,18.472 233.664,17.704 C233.664,14.984 231.84,13.224 229.376,13.224 C227.296,13.224 225.824,14.216 224.96,16.168 L224.96,13.48 L221.6,13.48 L221.6,29 L225.056,29 Z M250.24,26.056 C249.312,26.056 248.544,25.8 248,25.32 C247.424,24.84 246.656,23.848 245.696,22.408 L244.128,19.976 L250.784,13.48 L246.496,13.48 L239.712,20.328 L239.712,6.76 L236.256,6.76 L236.256,29 L239.712,29 L239.712,23.784 L241.44,22.088 L243.008,24.584 C244.064,26.216 245.088,27.4 246.048,28.104 C246.976,28.808 248.16,29.16 249.536,29.16 C250.08,29.16 250.56,29.128 250.976,29.032 L251.008,25.96 C250.784,26.024 250.528,26.056 250.24,26.056 Z M259.616,29.384 C263.552,29.384 266.24,27.592 266.24,24.552 C266.24,21.576 264.224,20.456 260.896,19.912 L259.104,19.592 C257.184,19.24 256.512,18.792 256.512,17.608 C256.512,16.424 257.6,15.72 259.488,15.72 C261.44,15.72 262.624,16.616 263.04,18.376 L266.144,17.608 C265.664,14.92 263.392,13.096 259.552,13.096 C255.552,13.096 253.056,14.856 253.056,17.64 C253.056,19.304 253.632,20.456 254.784,21.16 C255.936,21.864 256.928,22.184 258.592,22.472 L260.384,22.76 C262.08,23.112 262.72,23.528 262.72,24.648 C262.72,26.024 261.504,26.76 259.712,26.76 C257.152,26.76 255.776,25.64 255.584,23.432 L252.32,23.912 C252.352,25.672 253.024,27.016 254.4,27.944 C255.776,28.904 257.504,29.384 259.616,29.384 Z M271.136,29.352 C272.448,29.352 273.472,28.328 273.472,27.016 C273.472,25.736 272.448,24.744 271.136,24.744 C269.856,24.744 268.832,25.736 268.832,27.016 C268.832,28.296 269.856,29.352 271.136,29.352 Z M282.048,29.384 C284.032,29.384 285.6,28.616 286.72,27.048 L286.72,29 L290.08,29 L290.08,19.432 C290.08,15.304 287.552,13.096 283.456,13.096 C279.712,13.096 277.088,15.144 276.224,18.472 L279.392,19.144 C279.904,17 281.216,15.912 283.328,15.912 C285.408,15.912 286.592,17.192 286.592,19.4 L286.592,21.288 C285.376,20.168 283.872,19.592 282.112,19.592 C280.384,19.592 278.944,20.072 277.824,21 C276.672,21.96 276.096,23.112 276.096,24.488 C276.096,27.464 278.496,29.384 282.048,29.384 Z M282.688,26.824 C280.864,26.824 279.68,25.864 279.68,24.456 C279.68,23.08 280.896,22.12 282.688,22.12 C284.224,22.12 285.536,22.76 286.592,24.04 L286.592,24.52 C285.536,26.056 284.224,26.824 282.688,26.824 Z M296,10.856 C297.184,10.856 298.144,9.96 298.144,8.808 C298.144,7.624 297.184,6.728 296,6.728 C294.752,6.728 293.856,7.624 293.856,8.808 C293.856,9.992 294.752,10.856 296,10.856 Z M297.728,29 L297.728,13.48 L294.272,13.48 L294.272,29 L297.728,29 Z" id="Combined-Shape" fill="#0D0D0D" fill-rule="nonzero"></path>
        </g>
    </g>
</svg>