<?xml version="1.0" encoding="UTF-8"?>
<svg width="50px" height="50px" viewBox="0 0 50 50" version="1.1" xmlns="http://www.w3.org/2000/svg" xmlns:xlink="http://www.w3.org/1999/xlink">
    <title>Web/SVG/strategy</title>
    <g id="Web/SVG/strategy" stroke="none" stroke-width="1" fill="none" fill-rule="evenodd">
        <g id="Group-6" fill="#0C7DFF">
            <circle id="Oval" cx="25" cy="25" r="25"></circle>
        </g>
        <g id="Group" transform="translate(13, 12)" fill="#FFFFFF" fill-rule="nonzero" stroke="#FFFFFF">
            <path d="M23.6674365,2.68516912 L21.8937644,2.07458803 L21.2840647,0.353859497 C21.2286374,0.187337381 21.0623557,0.0208152645 20.8960739,0.0208152645 C20.7297921,-0.0346921075 20.5080831,0.0208152645 20.3972286,0.187337381 L18.4018476,2.07458803 C16.4618938,0.797918474 14.2448037,0.131830009 11.9168591,0.131830009 C5.32101617,0.131830009 0,5.46053773 0,12.065915 C0,18.6712923 5.32101617,24 11.9168591,24 C18.5127021,24 23.8337182,18.6712923 23.8337182,12.065915 C23.8337182,9.73460538 23.1685912,7.51431049 21.8937644,5.57155247 L23.8337182,3.62879445 C23.9445727,3.51777971 24,3.29575022 24,3.1292281 C23.9445727,2.90719861 23.8337182,2.7406765 23.6674365,2.68516912 Z M22.7251732,12.065915 C22.7251732,18.0607112 17.9030023,22.8898526 11.9168591,22.8898526 C5.93071594,22.8898526 1.10854503,18.0607112 1.10854503,12.065915 C1.10854503,6.07111882 5.93071594,1.24197745 11.9168591,1.24197745 C13.9676674,1.24197745 15.9076212,1.79705117 17.6258661,2.85169124 L17.2378753,3.24024284 C17.0715935,3.40676496 17.0161663,3.62879445 17.1270208,3.85082394 L17.7367206,5.5160451 L16.7944573,6.45967042 C15.5196305,5.34952298 13.8013857,4.68343452 11.9722864,4.68343452 C7.926097,4.68343452 4.60046189,8.01387684 4.60046189,12.065915 C4.60046189,16.1179532 7.926097,19.4483955 11.9722864,19.4483955 C16.0184758,19.4483955 19.3441109,16.1179532 19.3441109,12.065915 C19.3441109,10.2341717 18.6789838,8.56895056 17.5704388,7.23677363 L18.5127021,6.29314831 L20.1755196,6.9037294 C20.2309469,6.9037294 20.2863741,6.95923677 20.3418014,6.95923677 C20.5080831,6.95923677 20.6189376,6.9037294 20.7297921,6.79271466 L21.1177829,6.40416305 C22.1709007,8.06938422 22.7251732,10.0121422 22.7251732,12.065915 Z M11.5288684,12.4544666 C11.6397229,12.5654814 11.8060046,12.6209887 11.9168591,12.6209887 C12.0277136,12.6209887 12.1939954,12.5654814 12.3048499,12.4544666 L13.8568129,10.9002602 C14.0785219,11.2333044 14.1893764,11.621856 14.1893764,12.065915 C14.1893764,13.3425846 13.1916859,14.3417173 11.9168591,14.3417173 C10.6420323,14.3417173 9.6443418,13.3425846 9.6443418,12.065915 C9.6443418,10.7892454 10.6420323,9.79011275 11.9168591,9.79011275 C12.3602771,9.79011275 12.7482679,9.90112749 13.0808314,10.123157 L11.5288684,11.6773634 C11.3071594,11.8993929 11.3071594,12.2324371 11.5288684,12.4544666 Z M13.8568129,9.2905464 C13.3025404,8.9019948 12.6374134,8.67996531 11.9168591,8.67996531 C10.0323326,8.67996531 8.53579677,10.1786644 8.53579677,12.065915 C8.53579677,13.9531657 10.0323326,15.4518647 11.9168591,15.4518647 C13.8013857,15.4518647 15.2979215,13.9531657 15.2979215,12.065915 C15.2979215,11.3443192 15.0762125,10.6782307 14.6882217,10.123157 L16.73903,8.06938422 C17.6258661,9.17953166 18.1801386,10.567216 18.1801386,12.1214224 C18.1801386,15.5628794 15.3533487,18.3937554 11.9168591,18.3937554 C8.48036952,18.3937554 5.65357968,15.5073721 5.65357968,12.065915 C5.65357968,8.62445794 8.48036952,5.79358196 11.9168591,5.79358196 C13.4688222,5.79358196 14.8545035,6.34865568 15.9630485,7.23677363 L13.8568129,9.2905464 Z M20.1755196,5.73807459 L18.7898383,5.23850824 L18.2909931,3.85082394 L20.5635104,1.57502168 L21.0069284,2.7406765 C21.0623557,2.90719861 21.1732102,3.01821336 21.3394919,3.07372073 L22.5034642,3.51777971 L20.1755196,5.73807459 Z" id="Shape"></path>
        </g>
    </g>
</svg>