<?xml version="1.0" encoding="UTF-8"?>
<svg width="48px" height="58px" viewBox="0 0 48 58" version="1.1" xmlns="http://www.w3.org/2000/svg" xmlns:xlink="http://www.w3.org/1999/xlink">
    <title>Web/SVG/Logo/apple</title>
    <g id="Web/SVG/Logo/apple" stroke="none" stroke-width="1" fill="none" fill-rule="evenodd">
        <g id="Group" fill="#647C85" fill-rule="nonzero">
            <path d="M27.1184991,13.5257381 C26.2695444,13.7805238 25.0694864,13.9773095 23.5349792,14.1167857 C23.6040532,10.6544619 24.4965545,7.66801429 26.2258612,5.16158571 C27.9233611,2.67131429 30.7908868,0.950647619 34.8333528,0 C34.8584706,0.0665619048 34.8909599,0.19982381 34.9220842,0.384871429 C34.9534814,0.569919048 34.9847422,0.696828571 35.010133,0.766704762 C35.010133,0.85867619 35.016276,0.976195238 35.0288349,1.11567143 C35.0352508,1.25639048 35.0413938,1.37059524 35.0413938,1.46670952 C35.0413938,2.88384286 34.7079002,4.46171905 34.0421417,6.20448095 C33.3564528,7.94724286 32.2870347,9.55039048 30.8411225,11.0140619 C29.6022956,12.2661714 28.3571894,13.1057905 27.1184991,13.5257381 Z M42.5544859,37.9576857 C40.9706987,35.6607476 40.1783956,33.0655238 40.1783956,30.1848571 C40.1783956,27.5580095 40.9207361,25.153081 42.416611,22.9715905 C43.221473,21.7819 44.5293738,20.4143429 46.3460468,18.8567667 C45.1513126,17.3678238 43.9573976,16.2108619 42.7626634,15.3711048 C40.5995285,13.8631048 38.1535451,13.1059286 35.4188435,13.1059286 C33.790008,13.1059286 31.8026978,13.5003286 29.4641477,14.2892667 C27.2136464,15.0845571 25.5658361,15.4748143 24.5343678,15.4748143 C23.7544871,15.4748143 22.1705634,15.1290238 19.7808221,14.4299857 C17.3670551,13.7320524 15.3359251,13.3861238 13.6821084,13.3861238 C9.72728178,13.3861238 6.47002045,15.0580429 3.89203209,18.4040905 C1.29534189,21.7946048 0,26.1452952 0,31.4371048 C0,37.0673857 1.69149345,42.9059143 5.06806438,48.9739571 C8.48872798,54.991319 11.9467953,58 15.4362599,58 C16.6060127,58 18.1271419,57.6054619 19.9827201,56.8166619 C21.8434858,56.0478857 23.4783276,55.6649476 24.8801472,55.6649476 C26.3711077,55.6649476 28.1062843,56.0371143 30.0800801,56.7784095 C32.1677251,57.523019 33.7775857,57.894219 34.9035188,57.894219 C37.8462615,57.894219 40.7941915,55.6184095 43.762052,51.0636143 C45.6865677,48.1596095 47.1009462,45.2567095 48,42.3527048 C45.9498952,41.7225762 44.1395017,40.2598714 42.5544859,37.9576857 Z" id="Shape"></path>
        </g>
    </g>
</svg>