<?xml version="1.0" encoding="UTF-8"?>
<svg width="50px" height="50px" viewBox="0 0 50 50" version="1.1" xmlns="http://www.w3.org/2000/svg" xmlns:xlink="http://www.w3.org/1999/xlink">
    <title>Web/SVG/customer</title>
    <g id="Web/SVG/customer" stroke="none" stroke-width="1" fill="none" fill-rule="evenodd">
        <g id="Group-6" fill="#0C7DFF">
            <circle id="Oval" cx="25" cy="25" r="25"></circle>
        </g>
        <g id="Group" transform="translate(12, 12)">
            <path d="M25.1889357,22.0564879 L26.8764357,23.6814879 C27.0411881,23.8401384 27.0411881,24.0973616 26.8764357,24.2560121 L26.578,24.543 L26.578125,24.6458333 L26.472,24.645 L25.1889357,25.8810121 C25.0241832,26.0396626 24.7570668,26.0396626 24.5923143,25.8810121 C24.4275619,25.7223616 24.4275619,25.4651384 24.5923143,25.3064879 L25.278,24.645 L19.828125,24.6458333 L19.828125,23.5625 L25.559,23.562 L24.5923143,22.6310121 C24.4402352,22.4845655 24.4285368,22.2541279 24.5572191,22.0947596 L24.5923143,22.0564879 C24.7570668,21.8978374 25.0241832,21.8978374 25.1889357,22.0564879 Z M15.4858107,0.11898787 C15.6505631,0.277638364 15.6505631,0.534861636 15.4858107,0.69351213 L14.4773527,1.66337633 C20.5440927,2.14182125 25.3125,7.03454696 25.3125,13 C25.3125,19.2823657 20.0239951,24.375 13.5,24.375 L0,24.375 L0,23.5625 L13.5,23.5625 C19.5580049,23.5625 24.46875,18.8336343 24.46875,13 C24.46875,7.51420686 20.1261698,3.00536249 14.5706245,2.48717017 L15.4858107,3.36898787 C15.6378898,3.51543448 15.6495882,3.7458721 15.5209059,3.9052404 L15.4858107,3.94351213 C15.3210582,4.10216262 15.0539418,4.10216262 14.8891893,3.94351213 L13.2016893,2.31851213 C13.0369369,2.15986164 13.0369369,1.90263836 13.2016893,1.74398787 L14.8891893,0.11898787 C15.0539418,-0.0396626234 15.3210582,-0.0396626234 15.4858107,0.11898787 Z M11.345336,1.81373632 L11.4983515,2.61276368 C6.33495738,3.52967716 2.53125,7.88474401 2.53125,13 C2.53125,16.7343353 4.56002731,20.1313173 7.81447312,22.03514 L7.37640188,22.7295475 C3.87261028,20.6798597 1.6875,17.0211141 1.6875,13 C1.6875,7.4911028 5.78346863,2.80141051 11.345336,1.81373632 Z M13.5,8.125 C15.3172265,8.125 16.03125,8.98447276 16.03125,10.765625 C16.03125,11.5819987 15.7898639,12.3209552 15.3713248,12.8666364 L17.9280586,14.2722762 C18.0595043,14.3446061 18.140625,14.4792144 18.140625,14.625 L18.140625,15.4375 C18.140625,16.2883204 17.585407,17.0625 16.875,17.0625 L10.125,17.0625 C9.41459302,17.0625 8.859375,16.2883204 8.859375,15.4375 L8.859375,14.625 C8.859375,14.4792144 8.94049568,14.3446061 9.07194139,14.2722762 L11.6286752,12.8666364 C11.2101361,12.3209552 10.96875,11.5819987 10.96875,10.765625 C10.96875,8.98447276 11.6827735,8.125 13.5,8.125 Z M14.7391214,13.4535851 C14.3816669,13.6827561 13.9630238,13.8125 13.5,13.8125 C13.0369762,13.8125 12.6183331,13.6827561 12.2608786,13.4535851 L9.703125,14.860625 L9.703125,15.4375 C9.703125,15.8647946 9.93346118,16.2097071 10.0969108,16.2467119 L10.125,16.25 L16.875,16.25 C17.0386434,16.25 17.296875,15.8899296 17.296875,15.4375 L17.296875,14.8610312 L14.7391214,13.4535851 Z M13.5,8.9375 C12.1953515,8.9375 11.8125,9.39833974 11.8125,10.765625 C11.8125,12.0509397 12.5348655,13 13.5,13 C14.4651345,13 15.1875,12.0509397 15.1875,10.765625 C15.1875,9.39833974 14.8046485,8.9375 13.5,8.9375 Z" id="Combined-Shape" stroke="#FFFFFF" stroke-width="1.2" fill="#FFFFFF" fill-rule="nonzero"></path>
            <g transform="translate(9.2812, 8.5312)"></g>
        </g>
    </g>
</svg>