<?xml version="1.0" encoding="UTF-8"?>
<svg width="50px" height="50px" viewBox="0 0 50 50" version="1.1" xmlns="http://www.w3.org/2000/svg" xmlns:xlink="http://www.w3.org/1999/xlink">
    <title>Web/SVG/data</title>
    <g id="Web/SVG/data" stroke="none" stroke-width="1" fill="none" fill-rule="evenodd">
        <g id="Group-6" fill="#0C7DFF">
            <circle id="Oval" cx="25" cy="25" r="25"></circle>
        </g>
        <g id="Group" transform="translate(13, 13)" fill="#FFFFFF" fill-rule="nonzero" stroke="#FFFFFF" stroke-width="0.654545455">
            <path d="M11.3002612,24 C10.5532177,24 9.80617429,23.9333333 9.05913083,23.7866667 C4.63023032,22.92 1.06843383,19.3733333 0.214669878,14.9466667 C-0.438993148,11.5466667 0.414770804,8.09333333 2.57586081,5.48 C4.73695082,2.84 7.92522558,1.33333333 11.3269413,1.33333333 C11.7004631,1.33333333 11.9939444,1.62666667 11.9939444,2 L11.9939444,12 L21.9989907,12 C22.3725125,12 22.6659938,12.2933333 22.6659938,12.6666667 C22.6659938,16.0666667 21.1585668,19.2533333 18.5305747,21.4133333 C16.4895452,23.1066667 13.9415934,24 11.3002612,24 Z M10.6599382,2.69333333 C7.91188551,2.86666667 5.37727378,4.17333333 3.60304557,6.30666667 C1.69541673,8.62666667 0.935033213,11.6666667 1.52199593,14.68 C2.28237945,18.5866667 5.41729397,21.7066667 9.312592,22.4666667 C12.3141059,23.0533333 15.36898,22.2933333 17.6901508,20.3866667 C19.8379007,18.6133333 21.1318867,16.08 21.3186476,13.3333333 L11.3269413,13.3333333 C10.9534196,13.3333333 10.6599382,13.04 10.6599382,12.6666667 L10.6599382,2.69333333 Z" id="Shape"></path>
            <path d="M23.3329969,10.6666667 L13.9949537,10.6666667 C13.6214319,10.6666667 13.3279506,10.3733333 13.3279506,10 L13.3279506,0.666666667 C13.3279506,0.293333333 13.6214319,0 13.9949537,0 C19.5177392,0 24,4.48 24,10 C24,10.3733333 23.7065186,10.6666667 23.3329969,10.6666667 Z M14.6619568,9.33333333 L22.6393137,9.33333333 C22.3191522,5.08 18.9174365,1.68 14.6619568,1.36 L14.6619568,9.33333333 Z" id="Shape"></path>
        </g>
    </g>
</svg>