<?xml version="1.0" encoding="UTF-8"?>
<svg width="132px" height="72px" viewBox="0 0 132 72" version="1.1" xmlns="http://www.w3.org/2000/svg" xmlns:xlink="http://www.w3.org/1999/xlink">
    <title>Web/SVG/Logo/disney</title>
    <defs>
        <linearGradient x1="-4.75396354%" y1="90.0566202%" x2="103.736437%" y2="90.0566202%" id="linearGradient-1">
            <stop stop-color="#647C85" stop-opacity="0" offset="0%"></stop>
            <stop stop-color="#647C85" offset="100%"></stop>
        </linearGradient>
    </defs>
    <g id="Web/SVG/Logo/disney" stroke="none" stroke-width="1" fill="none" fill-rule="evenodd">
        <g id="Disney+_logo">
            <g id="group-1" transform="translate(0, 26.5591)" fill="#647C85" fill-rule="nonzero">
                <g id="group-2">
                    <path d="M92.5852036,19.4055032 C90.7721159,19.820619 86.0001697,20.059625 86.0001697,20.059625 L85.3958071,21.9465148 C85.3958071,21.9465148 87.7754848,21.7452465 89.5130272,21.9213562 C89.5130272,21.9213562 90.0796171,21.8584599 90.1425715,22.5628987 C90.1677533,23.2170205 90.092208,23.9214594 90.092208,23.9214594 C90.092208,23.9214594 90.0544353,24.3491544 89.4500727,24.4497885 C88.7953466,24.5630019 84.3129908,24.7265323 84.3129908,24.7265323 L83.5827194,27.179489 C83.5827194,27.179489 83.3183108,27.745556 83.9226733,27.5820255 C84.4892632,27.4310743 89.1856641,26.5505258 89.8026176,26.6763184 C90.4573437,26.8398489 91.1876152,27.7078182 90.9735701,28.5128911 C90.7217523,29.4940738 86.0379424,32.4879389 83.179811,32.2740914 C83.179811,32.2740914 81.6814954,32.3747255 80.4098158,30.3494639 C79.2262725,28.4248363 80.8630878,24.7642701 80.8630878,24.7642701 C80.8630878,24.7642701 80.1202254,23.0534901 80.6616336,22.4874232 C80.6616336,22.4874232 80.9889967,22.1981001 81.9207223,22.1226245 L83.066493,19.7451434 C83.066493,19.7451434 81.7570408,19.8331982 80.9764058,18.8771741 C80.2461343,17.9588877 80.1957708,17.543772 80.7497698,17.2921867 C81.3415415,17.0028636 86.7933956,16.0091016 90.5454799,16.1348943 C90.5454799,16.1348943 91.8549322,16.0091016 92.9755211,18.2733693 C92.9629302,18.2733693 93.5169293,19.1916557 92.5852036,19.4055032 Z M78.4708192,28.5380497 C77.9923655,29.6701835 76.7206859,30.877793 75.1468251,30.1230371 C73.5855551,29.3682812 71.1051503,24.2988373 71.1051503,24.2988373 C71.1051503,24.2988373 70.1608338,22.4119476 69.9845614,22.4496854 C69.9845614,22.4496854 69.7831072,22.0848867 69.6571983,24.1478862 C69.5312894,26.2108856 69.6823801,30.2236712 68.8639724,30.8526345 C68.0833374,31.4815977 67.1390209,31.2300124 66.6479763,30.4878358 C66.2072953,29.7582384 66.018432,28.0222998 66.2576588,24.9781176 C66.5472492,21.9339355 67.2523389,18.6884851 68.1588828,17.6695646 C69.0654266,16.6632234 69.7956981,17.3928208 70.0726976,17.6569854 C70.0726976,17.6569854 71.2814227,18.7513814 73.2833738,21.9716733 L73.6359186,22.5628987 C73.6359186,22.5628987 75.4490064,25.6070809 75.6378697,25.5945016 C75.6378697,25.5945016 75.7889603,25.7328736 75.9148692,25.6322394 C76.1037325,25.5819224 76.0281872,24.6007397 76.0281872,24.6007397 C76.0281872,24.6007397 75.6504605,21.292393 74.0010543,15.6820407 C74.0010543,15.6820407 73.7492366,14.9776019 73.925509,14.3234801 C74.0891905,13.656779 74.7565076,13.9712607 74.7565076,13.9712607 C74.7565076,13.9712607 77.3250485,15.2543457 78.5589555,19.4306617 C79.7802715,23.6447155 78.9492729,27.4059158 78.4708192,28.5380497 Z M65.8547504,17.8079365 C65.6407053,18.2356315 65.5147965,18.8520155 64.4319802,19.015546 C64.4319802,19.015546 54.0696801,19.7199848 53.5786356,20.4495822 C53.5786356,20.4495822 53.2134998,20.8772772 53.7800897,21.0030699 C54.3466797,21.1162833 56.6885847,21.4307649 57.8217645,21.4936612 C59.0304896,21.5062405 63.109937,21.5439783 64.5704799,23.3679717 C64.5704799,23.3679717 65.4392511,24.235941 65.4014785,26.1983064 C65.3637058,28.2109888 65.011161,28.9154276 64.230526,29.645025 C63.4121183,30.3243053 56.3864034,33.4691216 51.853684,28.6386838 C51.853684,28.6386838 49.7635968,26.3115198 52.5713646,24.5504226 C52.5713646,24.5504226 54.5984974,23.3302339 59.7481702,24.7642701 C59.7481702,24.7642701 61.3094402,25.3303371 61.2338949,25.896404 C61.1457587,26.5002087 59.9496244,27.1417512 58.212082,27.1040135 C56.5249031,27.0536964 55.2909962,26.2486234 55.530223,26.3744161 C55.756859,26.4624709 53.7171353,25.3932334 53.087591,26.1228308 C52.4580466,26.7895318 52.6091372,27.2046476 53.2260907,27.6197633 C54.7999516,28.5128911 60.88135,28.1984095 62.6944378,26.1857271 C62.6944378,26.1857271 63.4121183,25.3680749 62.3167112,24.7013738 C61.221304,24.0724106 58.0861731,23.6950326 56.8648571,23.6321363 C55.6939046,23.56924 51.3374577,23.6447155 50.7079133,22.4874232 C50.7079133,22.4874232 50.078369,21.7075087 50.7708677,19.4935581 C51.5011392,17.1789733 56.5752667,16.2858455 58.766081,16.0845772 C58.766081,16.0845772 64.7971159,15.8707297 65.905114,17.1034977 C65.8925231,17.1034977 66.0436137,17.3928208 65.8547504,17.8079365 Z M48.731144,31.3809636 C48.0008726,31.921872 46.4521935,31.682866 46.0115124,31.0790612 C45.5708314,30.5381528 45.4197407,28.3870985 45.507877,25.0158554 C45.5960132,21.6068746 45.6715585,17.3802415 46.4018299,16.7135405 C47.1824649,16.0342602 47.6609186,16.6254856 47.9630999,17.0909184 C48.290463,17.543772 48.6807805,18.0469426 48.7689167,19.1161801 C48.844462,20.1854176 49.0962798,25.7957699 49.0962798,25.7957699 C49.0962798,25.7957699 49.4236428,30.8526345 48.731144,31.3809636 Z M50.3050049,13.2919804 C48.177145,13.9964192 46.7166021,13.7574132 45.4826952,13.229084 C44.941287,14.1725289 44.6265149,14.461852 44.2110156,14.5247483 C43.606653,14.5876447 43.0652449,13.6190413 42.9645178,13.3045596 C42.8637907,13.0655536 42.5742003,12.6630171 42.9267451,11.706993 C41.71802,10.6251762 41.6298837,9.1659814 41.8313379,8.18479872 C42.1335192,7.05266486 44.1732429,2.75055619 50.3805502,2.24738559 C50.3805502,2.24738559 53.414954,2.02095882 53.9311804,3.64368402 L54.0193166,3.64368402 C54.0193166,3.64368402 56.9655842,3.65626328 56.9026297,6.27275043 C56.8648571,8.90181684 53.6289991,12.1724258 50.3050049,13.2919804 Z M44.5131969,7.46778061 C43.8836525,8.47412182 43.8584708,9.07792655 44.1480612,9.4930423 C44.8657417,8.39864623 46.175194,6.67528691 48.1015997,5.36704334 C46.615875,5.49283599 45.3693772,6.13437851 44.5131969,7.46778061 Z M53.087591,5.78215909 C51.1360035,6.07148218 48.1141906,8.68796933 46.6788294,10.8264444 C48.8822347,11.2289809 52.7728188,11.0780297 54.4977703,7.56841473 C54.4851794,7.56841473 55.316178,5.39220187 53.087591,5.78215909 Z M106.070044,26.0473552 C104.899091,28.0851961 101.61287,32.3369877 97.2312409,31.3432258 C95.7832889,34.8528408 94.5745638,38.3876143 93.882065,43.6960641 C93.882065,43.6960641 93.7309743,44.7275639 92.874794,44.3627652 C92.0312046,44.0608628 90.6210252,42.6519851 90.3440257,40.702199 C90.0418444,38.136029 91.1876152,33.7961825 93.5169293,28.8273728 C92.8370214,27.7203974 92.3711585,26.13541 92.7740669,23.8837216 C92.7740669,23.8837216 93.3658386,19.7074056 97.558604,15.933626 C97.558604,15.933626 98.0622395,15.4933518 98.3518299,15.6317237 C98.679193,15.7700956 98.5281023,17.1286562 98.2636937,17.782778 C97.9992851,18.4368998 96.1232429,21.6823502 96.1232429,21.6823502 C96.1232429,21.6823502 94.9522904,23.8711423 95.2796534,25.5945016 C97.4830587,22.2106793 102.494232,15.3801384 105.604181,17.5311927 C106.649224,18.2733693 107.127678,19.8960945 107.127678,21.6446124 C107.115087,23.191862 106.749952,24.8271665 106.070044,26.0473552 Z M105.1635,20.6885882 C105.1635,20.6885882 104.987227,19.3426069 103.677775,20.8269602 C102.544595,22.0723074 100.504872,24.42463 98.8554654,27.6071841 C100.580417,27.4184951 102.242414,26.4750502 102.746049,25.9970381 C103.564457,25.2674407 105.465681,23.3050754 105.1635,20.6885882 Z M44.0347432,22.3993683 C43.7955163,25.4435505 42.6245638,30.5633114 34.3271693,33.0917436 C28.8501334,34.7396274 23.6752788,33.9471337 20.8549201,33.2301156 C20.7919657,34.3496702 20.6660568,34.8276822 20.4897844,35.0163712 C20.2505575,35.2553772 18.4626516,36.286877 17.4805624,34.8276822 C17.0398813,34.1358227 16.8132454,32.8778961 16.6873365,31.7583415 C10.3415294,28.839952 7.42044364,24.6384775 7.30712565,24.4497885 C7.1686259,24.3114166 5.72067389,22.8019048 7.1686259,20.9527528 C8.5284417,19.2797106 12.9730248,17.6066683 16.9769269,16.927388 C17.1154267,13.5058279 17.518335,10.9270785 17.9967888,9.7446276 C18.5759696,8.3734877 19.306241,9.60625568 19.9357854,10.5371213 C20.4646026,11.2289809 20.7793748,14.2102667 20.8045566,16.5877478 C23.4234611,16.4619552 24.9721402,16.6506441 27.893226,17.1789733 C31.6956739,17.8708329 34.239033,19.8080397 34.0123971,22.0094111 C33.8487155,24.1730447 31.8593554,25.0661725 31.1039022,25.1290688 C30.3106763,25.1919652 29.0767694,24.6258982 29.0767694,24.6258982 C28.2331799,24.2233617 29.0138149,23.8711423 30.0336768,23.430868 C31.1416748,22.8899596 30.8898571,22.336472 30.8898571,22.336472 C30.4743578,21.1288625 25.5387301,20.2860518 20.6282841,20.2860518 C20.6031024,22.9905938 20.7416021,27.4813914 20.8045566,30.0978786 C24.2418687,30.7520003 26.8104097,30.6262077 26.8104097,30.6262077 C26.8104097,30.6262077 39.3509332,30.2739883 39.7286598,22.2735757 C40.1189773,14.2605838 27.225909,6.57465279 17.6946075,4.13427536 C8.17589686,1.64358087 2.7869972,3.37951945 2.32113438,3.61852549 C1.8174989,3.87011079 2.28336172,3.94558638 2.28336172,3.94558638 C2.28336172,3.94558638 2.79958809,4.02106197 3.69354107,4.32296433 C4.6378576,4.6248667 3.90758615,5.11545804 3.90758615,5.11545804 C2.28336172,5.63120791 0.457683101,5.30414701 0.105138264,4.56197037 C-0.247406574,3.81979373 0.344365117,3.15309268 1.02427302,2.19706853 C1.70418092,1.19072732 2.44704325,1.22846512 2.44704325,1.22846512 C14.2195226,-2.84721678 28.560543,4.52423258 28.560543,4.52423258 C41.9950195,11.329615 44.2865609,19.3048691 44.0347432,22.3993683 Z M8.50325992,21.9842526 C7.1686259,22.6383743 8.08776065,23.5818192 8.08776065,23.5818192 C10.5933472,26.273782 13.6781145,27.9594035 16.6117912,29.0034825 C16.9517451,24.3617337 16.9013816,22.7264292 16.9391542,20.3866859 C12.3560714,20.7011675 9.71198508,21.4307649 8.50325992,21.9842526 Z" id="Path"></path>
                </g>
            </g>
            <g id="group-3" transform="translate(110.9931, 38.329)" fill="#647C85" fill-rule="nonzero">
                <g id="group-5">
                    <path d="M20.0069195,9.25833912 L20.0069195,10.9188021 C20.0069195,11.2836008 19.7173291,11.5729239 19.3521934,11.5729239 L11.4325254,11.5729239 C11.4325254,11.9880397 11.4451163,12.3528383 11.4451163,12.6924785 C11.4451163,15.1454352 11.3443892,17.1455383 11.1051624,19.3972268 C11.0673897,19.736867 10.7903902,19.9884523 10.4630271,19.9884523 L8.7506665,19.9884523 C8.57439408,19.9884523 8.41071255,19.9129767 8.29739456,19.787184 C8.18407658,19.6613914 8.12112215,19.4852817 8.14630392,19.3091719 C8.38553077,17.0700628 8.49884876,15.0951181 8.49884876,12.6924785 C8.49884876,12.3402591 8.49884876,11.9754604 8.48625787,11.5729239 L0.654726126,11.5729239 C0.289590402,11.5729239 0,11.2836008 0,10.9188021 L0,9.25833912 C0,8.89354043 0.289590402,8.60421734 0.654726126,8.60421734 L8.37293989,8.60421734 C8.20925835,5.89967534 7.88189529,3.29576746 7.35307804,0.654121786 C7.32789626,0.490591339 7.36566892,0.327060893 7.46639602,0.201268242 C7.56712312,0.0754755907 7.71821376,0 7.88189529,0 L9.73275569,0 C10.0223461,0 10.2615729,0.201268242 10.3245274,0.490591339 C10.8407537,3.22029187 11.1681168,5.87451681 11.3317983,8.60421734 L19.3521934,8.60421734 C19.7047382,8.60421734 20.0069195,8.9061197 20.0069195,9.25833912 Z" id="Path-1"></path>
                </g>
            </g>
            <g id="group-7" transform="translate(22.9239, 0)">
                <path d="M2.46409486,25.7121008 C2.31289486,25.7121008 2.16169486,25.6617008 2.01049486,25.6617008 C2.16169486,25.7121008 2.31289486,25.7121008 2.46409486,25.7121008 L2.61529486,25.7121008 C2.56489486,25.7121008 2.51449486,25.7121008 2.46409486,25.7121008 Z M2.46409486,25.7121008 C2.31289486,25.7121008 2.16169486,25.6617008 2.01049486,25.6617008 C2.16169486,25.7121008 2.31289486,25.7121008 2.46409486,25.7121008 L2.61529486,25.7121008 C2.56489486,25.7121008 2.51449486,25.7121008 2.46409486,25.7121008 Z" id="Path-2"></path>
                <path d="M97.298328,34.4168693 C93.2062897,24.3660365 86.2938927,15.799557 77.3039994,9.63571708 C68.100061,3.33350525 57.3096708,0 46.1037813,0 C27.5699956,0 10.3708439,9.1954428 0.109270913,24.6050426 C-0.00404707084,24.768573 -0.0292288449,24.9824205 0.0337255903,25.1711095 C0.0966800255,25.3723777 0.24777067,25.5107496 0.436633976,25.573646 L1.8719951,26.0642373 C1.96013131,26.0893958 2.04826752,26.1019751 2.12381284,26.1019751 C2.38822147,26.1019751 2.64003921,25.9636032 2.79112985,25.7497557 C7.50012161,18.8311599 13.8711105,13.0824357 21.2241885,9.10738794 C28.8164934,5.00654752 37.4160692,2.83033465 46.0911904,2.83033465 C56.5793993,2.83033465 66.6898816,5.92483387 75.3524119,11.7616129 C83.8008971,17.46002 90.3607493,25.4226948 94.3268787,34.7690888 C94.4401967,35.0458326 94.7171962,35.2345216 95.0193775,35.2345216 L96.7317381,35.2345216 C96.9331923,35.2345216 97.1220556,35.1338875 97.2227827,34.970357 C97.3486916,34.8068266 97.3738733,34.6055583 97.298328,34.4168693 Z M2.12381284,25.6742801 C2.08604018,25.6742801 2.04826752,25.6617008 2.01049486,25.6491216 C2.04826752,25.6617008 2.08604018,25.6742801 2.12381284,25.6742801 L2.14899461,25.6742801 C2.14899461,25.6742801 2.13640373,25.6742801 2.12381284,25.6742801 Z M94.6668326,35.0080948 C94.7046053,35.0332533 94.742378,35.0584119 94.7801506,35.0709911 C94.742378,35.0458326 94.7046053,35.0332533 94.6668326,35.0080948 Z" id="Path-3" fill="url(#linearGradient-1)" fill-rule="nonzero"></path>
            </g>
        </g>
    </g>
</svg>