<?xml version="1.0" encoding="UTF-8"?>
<svg width="50px" height="50px" viewBox="0 0 50 50" version="1.1" xmlns="http://www.w3.org/2000/svg" xmlns:xlink="http://www.w3.org/1999/xlink">
    <title>Web/SVG/experience</title>
    <g id="Web/SVG/experience" stroke="none" stroke-width="1" fill="none" fill-rule="evenodd">
        <g id="Group-6" fill="#0C7DFF">
            <circle id="Oval" cx="25" cy="25" r="25"></circle>
        </g>
        <g id="Group" transform="translate(13, 12)" fill="#FFFFFF" fill-rule="nonzero" stroke="#FFFFFF">
            <path d="M21.93,14.5075149 L21.715,14.5075149 C21.644,14.5075149 21.572,14.5145093 21.5,14.5215038 L21.5,2.63691244 L12,0 L2.5,2.63691244 L2.5,13.5083059 L0,13.5083059 L0,21.0023731 L4.3975,21.0023731 L10.894,23.7851701 C11.229,23.928057 11.5825,24 11.945,24 C12.392,24 12.8345,23.8870894 13.2245,23.6742579 L22.92,18.3884425 C23.586,18.0257296 24,17.3307798 24,16.5758774 C24,16.0163204 23.7835,15.4957325 23.3965,15.1165327 C23.01,14.7238436 22.4895,14.5075149 21.93,14.5075149 Z M12.5,5.89433365 L20.5,3.67359174 L20.5,14.7643116 L12.647,16.9455847 L12.5,16.798701 L12.5,5.89433365 Z M19.132,3.01661185 L12,4.9960448 L4.868,3.01661185 L12,1.0371789 L19.132,3.01661185 Z M3.5,3.67359174 L11.5,5.89433365 L11.5,15.7994921 L9.207,13.5083059 L3.5,13.5083059 L3.5,3.67359174 Z M22.441,17.511137 L12.745,22.797452 C12.3,23.0402598 11.7575,23.0672384 11.2865,22.8663974 L4.6025,20.0031642 L1,20.0031642 L1,14.5075149 L8.793,14.5075149 L12.141,17.8528665 C12.3725,18.0916774 12.5,18.4084267 12.5,18.7691411 C12.5,19.4496024 11.9465,20.0031642 11.23,20.0031642 C10.8975,20.0031642 10.573,19.8687706 10.3385,19.6349557 L7.8535,17.1519214 L7.1465,17.8583621 L9.6315,20.341896 C10.052,20.7615638 10.635,21.0023731 11.265,21.0023731 C12.4975,21.0023731 13.5,20.0006661 13.5,18.7441609 C13.5,18.4159207 13.431,18.0976727 13.296,17.8024064 L21.131,15.6241309 L21.42,15.545693 C21.5215,15.519214 21.618,15.5067238 21.715,15.5067238 L21.9305,15.5067238 C22.2195,15.5067238 22.4865,15.6171364 22.6905,15.8229735 C22.8895,16.019318 23,16.287106 23,16.5758774 C23,16.9650693 22.7855,17.3232857 22.441,17.511137 Z" id="Shape"></path>
        </g>
    </g>
</svg>