<?xml version="1.0" encoding="UTF-8"?>
<svg width="50px" height="50px" viewBox="0 0 50 50" version="1.1" xmlns="http://www.w3.org/2000/svg" xmlns:xlink="http://www.w3.org/1999/xlink">
    <title>Web/SVG/hardware</title>
    <g id="Web/SVG/hardware" stroke="none" stroke-width="1" fill="none" fill-rule="evenodd">
        <g id="Group-6" fill="#0C7DFF">
            <circle id="Oval" cx="25" cy="25" r="25"></circle>
        </g>
        <g id="Group" transform="translate(12, 12)" fill="#FFFFFF" fill-rule="nonzero" stroke="#FFFFFF" stroke-width="0.541666667">
            <path d="M25.1333333,16.4666667 L20.8,16.4666667 L20.8,13.8666667 L24.2666667,13.8666667 C24.7453134,13.8666667 25.1333333,13.4786468 25.1333333,13 C25.1333333,12.5213532 24.7453134,12.1333333 24.2666667,12.1333333 L20.8,12.1333333 L20.8,9.53333333 L25.1333333,9.53333333 C25.6119801,9.53333333 26,9.14531345 26,8.66666667 C26,8.18801988 25.6119801,7.8 25.1333333,7.8 L20.8,7.8 L20.8,6.93333333 C20.8,5.49739298 19.6359403,4.33333333 18.2,4.33333333 L18.2,0.866666667 C18.2,0.388019883 17.8119801,0 17.3333333,0 C16.8546866,0 16.4666667,0.388019883 16.4666667,0.866666667 L16.4666667,4.33333333 L13.8666667,4.33333333 L13.8666667,1.73333333 C13.8666667,1.25468655 13.4786468,0.866666667 13,0.866666667 C12.5213532,0.866666667 12.1333333,1.25468655 12.1333333,1.73333333 L12.1333333,4.33333333 L9.53333333,4.33333333 L9.53333333,0.866666667 C9.53333333,0.388019883 9.14531345,0 8.66666667,0 C8.18801988,0 7.8,0.388019883 7.8,0.866666667 L7.8,4.33333333 C6.36405965,4.33333333 5.2,5.49739298 5.2,6.93333333 L5.2,7.8 L0.866666667,7.8 C0.388019883,7.8 0,8.18801988 0,8.66666667 C0,9.14531345 0.388019883,9.53333333 0.866666667,9.53333333 L5.2,9.53333333 L5.2,12.1333333 L1.73333333,12.1333333 C1.25468655,12.1333333 0.866666667,12.5213532 0.866666667,13 C0.866666667,13.4786468 1.25468655,13.8666667 1.73333333,13.8666667 L5.2,13.8666667 L5.2,15.6 L0.866666667,15.6 C0.388019883,15.6 0,15.9880199 0,16.4666667 C0,16.9453134 0.388019883,17.3333333 0.866666667,17.3333333 L5.2,17.3333333 L5.2,18.2 C5.2,19.6359403 6.36405965,20.8 7.8,20.8 L7.8,25.1333333 C7.8,25.6119801 8.18801988,26 8.66666667,26 C9.14531345,26 9.53333333,25.6119801 9.53333333,25.1333333 L9.53333333,20.8 L12.1333333,20.8 L12.1333333,24.2666667 C12.1333333,24.7453134 12.5213532,25.1333333 13,25.1333333 C13.4786468,25.1333333 13.8666667,24.7453134 13.8666667,24.2666667 L13.8666667,20.8 L16.4666667,20.8 L16.4666667,25.1333333 C16.4666667,25.6119801 16.8546866,26 17.3333333,26 C17.8119801,26 18.2,25.6119801 18.2,25.1333333 L18.2,20.8 C19.6359403,20.8 20.8,19.6359403 20.8,18.2 L25.1333333,18.2 C25.6119801,18.2 26,17.8119801 26,17.3333333 C26,16.8546866 25.6119801,16.4666667 25.1333333,16.4666667 Z M19.0666667,18.2 C19.0666667,18.6786468 18.6786468,19.0666667 18.2,19.0666667 L7.8,19.0666667 C7.32135322,19.0666667 6.93333333,18.6786468 6.93333333,18.2 L6.93333333,6.93333333 C6.93333333,6.45468655 7.32135322,6.06666667 7.8,6.06666667 L18.2,6.06666667 C18.6786468,6.06666667 19.0666667,6.45468655 19.0666667,6.93333333 L19.0666667,18.2 Z" id="Shape"></path>
        </g>
    </g>
</svg>