<svg xmlns="http://www.w3.org/2000/svg" width="36" height="30" viewBox="0 0 36 30"><g fill="none" transform="translate(1 3)"><path fill="#FF5581" d="M10.8592174,3.92801029 C12.8748075,3.94179329 14.7792036,4.85930427 16.0532008,6.43039772 C16.1672435,6.57240749 16.3390043,6.65494207 16.5204946,6.65494207 C16.701985,6.65494207 16.8737457,6.57240749 16.9877884,6.43039772 C18.2618123,4.8593383 20.1661914,3.94183548 22.1817719,3.92801029 C26.0357106,3.92801029 28.6604015,7.30147432 28.6604015,11.4619796 C28.6604015,13.9502105 27.3428157,17.9772832 24.762144,20.4037677 C21.0881756,23.8585563 17.9669943,24.747705 16.907236,24.9612573 C16.6524699,25.0129142 16.3900166,25.0129142 16.1352505,24.9612573 C15.0754922,24.7474038 11.9528137,23.8582551 8.27884521,20.4034665 C5.69847304,17.9772832 4.38058771,13.9502105 4.38058771,11.4619796 C4.38058771,7.30117312 7.00527867,3.92801029 10.8592174,3.92801029 Z"/><path fill="#FFF" d="M17.4863749,16.0821193 C17.5714184,16.0827463 17.6518597,16.1210614 17.7062309,16.1868392 C17.760602,16.252617 17.7833698,16.3391635 17.7684581,16.4233813 C17.6724437,17.0418724 17.1428417,17.4978465 16.5204946,17.4978465 C15.8981476,17.4978465 15.3685455,17.0418724 15.2725312,16.4233813 C15.2576194,16.3391635 15.2803872,16.252617 15.3347584,16.1868392 C15.3891295,16.1210614 15.4695708,16.0827463 15.5546143,16.0821193 L17.4863749,16.0821193 Z"/><path fill="#FFB95C" d="M33.7486786,15.7800135 L32.8886544,15.3071261 L32.4182164,14.4417724 C32.3333544,14.2859772 32.1708068,14.1890638 31.9941933,14.1890638 L31.9941933,14.1890638 C31.8175517,14.1892928 31.6550498,14.2862559 31.5701702,14.4420736 L31.0997321,15.3071261 L30.2400073,15.7800135 C30.084867,15.8652412 29.9883614,16.0288616 29.9883614,16.2066664 C29.9883614,16.3844712 30.084867,16.5480915 30.2400073,16.6333192 L31.1000316,17.1065078 L31.5701702,17.9709579 C31.6547287,18.127127 31.817399,18.224269 31.9941933,18.224269 L31.9941933,18.224269 C32.1709955,18.2243455 32.3337296,18.1273124 32.4185158,17.9712591 L32.8886544,17.1065078 L33.7486786,16.6333192 C33.9036468,16.5479568 34,16.3843839 34,16.2066664 C34,16.0289488 33.9036468,15.8653759 33.7486786,15.7800135 L33.7486786,15.7800135 Z"/><path fill="#FFC67B" d="M7.46673318,0.875326549 L7.04001503,0.640388875 L6.80644299,0.210874616 C6.73566537,0.0808483797 6.60001937,0 6.45264123,0 C6.3052631,0 6.16961709,0.0808483797 6.09883948,0.210874616 L5.86526743,0.640388875 L5.43854928,0.875025347 C5.30914535,0.946258191 5.22867757,1.0828194 5.22867757,1.23119688 C5.22867757,1.37957437 5.30914535,1.51613558 5.43854928,1.58736842 L5.86556689,1.82200489 L6.09913893,2.25151915 C6.16991655,2.38154539 6.30556255,2.46239377 6.45294068,2.46239377 C6.60031882,2.46239377 6.73596482,2.38154539 6.80674244,2.25151915 L7.04031448,1.82230609 L7.46733209,1.58736842 C7.59660251,1.51617699 7.67698094,1.3797379 7.67698094,1.23149809 C7.67698094,1.08325827 7.59660251,0.946819186 7.46733209,0.875627751 L7.46673318,0.875326549 Z"/><path fill="#FFB95C" d="M3.06899085,5.04818107 L2.40600559,4.68342527 L2.04307057,4.01656372 C1.96474974,3.8722898 1.81436437,3.78253993 1.65093905,3.78253993 C1.48751372,3.78253993 1.33712835,3.8722898 1.25880752,4.01656372 L0.895872502,4.68372648 L0.232288339,5.04818107 C0.089044368,5.12718247 0,5.27843701 0,5.44275588 C0,5.60707476 0.089044368,5.7583293 0.232288339,5.83733069 L0.89557305,6.20208649 L1.25850807,6.86894804 C1.3368289,7.01322197 1.48721427,7.10297184 1.6506396,7.10297184 C1.81406492,7.10297184 1.96445029,7.01322197 2.04277112,6.86894804 L2.40570614,6.20178529 L3.06899085,5.8388367 C3.21240674,5.75996979 3.30160328,5.60866787 3.30160328,5.44426189 C3.30160328,5.27985592 3.21240674,5.128554 3.06899085,5.04968708 L3.06899085,5.04818107 Z"/><path fill="#DD375F" d="M14.0750253 13.941175C13.9512478 13.941224 13.8329358 13.8898955 13.7480244 13.7993082 13.3925137 13.5182561 12.9079779 13.467972 12.5029058 13.6700925 12.3058526 13.8223021 12.0234364 13.7850153 11.8721115 13.5868101 11.7207866 13.3886048 11.7578567 13.1045374 11.9549098 12.9523278 12.4768535 12.5490181 13.7333513 12.4658863 14.4011278 13.1779282 14.5250525 13.3089259 14.559388 13.5016273 14.4884063 13.6677608 14.4174245 13.8338943 14.2547994 13.9414559 14.0750253 13.941175ZM18.965964 13.9411744C18.7867132 13.9411261 18.6246514 13.8338855 18.5536485 13.6683346 18.4826457 13.5027837 18.5162966 13.3106198 18.6392626 13.1794342 19.3067396 12.4676935 20.5638363 12.5505241 21.0854805 12.9538338 21.2764179 13.1076157 21.3099203 13.3867986 21.1608448 13.5818611 21.0117692 13.7769236 20.7349273 13.816146 20.5380835 13.6700925 20.1330679 13.4678872 19.648536 13.5180536 19.2929648 13.799007 19.2081052 13.8897054 19.0897864 13.9411458 18.965964 13.9411744Z"/></g></svg>