<?xml version="1.0" encoding="UTF-8"?>
<svg width="50px" height="50px" viewBox="0 0 50 50" version="1.1" xmlns="http://www.w3.org/2000/svg" xmlns:xlink="http://www.w3.org/1999/xlink">
    <title>Web/SVG/innovate</title>
    <g id="Web/SVG/innovate" stroke="none" stroke-width="1" fill="none" fill-rule="evenodd">
        <g id="Group-6" fill="#0C7DFF">
            <circle id="Oval" cx="25" cy="25" r="25"></circle>
        </g>
        <g id="Group" transform="translate(13, 9)" fill="#FFFFFF" fill-rule="nonzero" stroke="#FFFFFF" stroke-width="1.2">
            <path d="M12.0662265,4.33585529 C10.0510496,4.30275499 8.16182123,5.06837997 6.73440424,6.44592928 C5.30698726,7.82347859 4.52113926,9.65982728 4.52113926,11.6162007 C4.52113926,13.6566201 5.40987483,15.6155839 6.95969256,16.9902549 C8.17483001,18.06875 8.87198189,19.5801398 8.87198189,21.1367188 L8.87198189,21.730222 C8.87198189,21.974301 9.07539176,22.1723273 9.32610626,22.1723273 L14.6738938,22.1723273 C14.9246083,22.1723273 15.1280182,21.974301 15.1280182,21.730222 L15.1280182,21.1430509 C15.1280182,19.598273 15.840544,18.093791 17.1337341,16.9064967 C18.6734996,15.492393 19.527348,13.4988898 19.4764955,11.437171 C19.3801124,7.55522202 16.05578,4.36953128 12.0662265,4.33585529 Z M16.5104957,16.263199 C15.0334089,17.6191612 14.2197694,19.3521793 14.2197694,21.143051 L14.2197694,21.2881168 L12.4541244,21.2881168 L12.4541244,16.0805715 C13.6600966,15.8714638 14.5798758,14.8533049 14.5798758,13.6258224 C14.5798758,13.3817434 14.376466,13.1837171 14.1257515,13.1837171 C13.875037,13.1837171 13.6716271,13.3817434 13.6716271,13.6258224 C13.6716271,14.5163652 12.9218488,15.2408306 12,15.2408306 C11.0781512,15.2408306 10.3283729,14.5163652 10.3283729,13.6258224 C10.3283729,13.3817434 10.124963,13.1837171 9.87424854,13.1837171 C9.62353404,13.1837171 9.42012417,13.3817434 9.42012417,13.6258224 C9.42012417,14.8533049 10.3399034,15.8714638 11.5458756,16.0805715 L11.5458756,21.2881168 L9.78023063,21.2881168 L9.78023063,21.1367188 C9.78023063,19.3317434 8.97486945,17.5823191 7.57110478,16.3368832 C6.2099004,15.129153 5.429388,13.4085116 5.429388,11.6162007 C5.429388,9.89728621 6.12003549,8.28429274 7.3741993,7.07397205 C8.62777178,5.86393914 10.295851,5.20941615 12.0579482,5.21993788 C15.5034986,5.24913654 18.4848724,8.10612668 18.5682468,11.4584704 C18.6131862,13.269778 17.8634079,15.0212171 16.5104957,16.263199 Z" id="Shape"></path>
            <path d="M14.6738937,24.1995066 L9.3261062,24.1995066 C9.0753917,24.1995066 8.87198183,24.3975329 8.87198183,24.6416119 C8.87198183,24.8856908 9.0753917,25.0837171 9.3261062,25.0837171 L14.6738937,25.0837171 C14.9246082,25.0837171 15.1280181,24.8856908 15.1280181,24.6416119 C15.1280181,24.3975329 14.9246082,24.1995066 14.6738937,24.1995066 Z" id="Path"></path>
            <path d="M13.4232778,27.1157895 L10.5767221,27.1157895 C10.3260077,27.1157895 10.1225978,27.3138158 10.1225978,27.5578947 C10.1225978,27.8019737 10.3260077,28 10.5767221,28 L13.4232778,28 C13.6739923,28 13.8774022,27.8019737 13.8774022,27.5578947 C13.8774022,27.3138158 13.6739923,27.1157895 13.4232778,27.1157895 Z" id="Path"></path>
            <path d="M12,2.37314967 C12.2507145,2.37314967 12.4541244,2.17512335 12.4541244,1.9310444 L12.4541244,0.442105263 C12.4541244,0.198026316 12.2507145,0 12,0 C11.7492855,0 11.5458756,0.198026316 11.5458756,0.442105263 L11.5458756,1.9310444 C11.5458756,2.17512335 11.7492855,2.37314967 12,2.37314967 Z" id="Path"></path>
            <path d="M19.8431063,2.81928451 L18.6693604,3.96225324 C18.491968,4.13495064 18.491968,4.41472033 18.6693604,4.58741773 C18.7580566,4.67376643 18.8739528,4.71694077 18.9904405,4.71694077 C19.1069281,4.71694077 19.2228244,4.67376643 19.3115206,4.58741773 L20.4852665,3.444449 C20.6626589,3.2717516 20.6626589,2.99198191 20.4852665,2.81928451 C20.3078742,2.64658712 20.0204987,2.64658717 19.8431063,2.81928451 Z" id="Path"></path>
            <path d="M4.68847937,17.5725329 L3.51473341,18.7157895 C3.33734105,18.8884869 3.33734105,19.1685444 3.51473341,19.340954 C3.6034296,19.4273027 3.71932589,19.470477 3.83581351,19.470477 C3.95230114,19.470477 4.06819749,19.4273027 4.15689361,19.340954 L5.33063957,18.1976974 C5.50803193,18.025 5.50803193,17.7449425 5.33063957,17.5725329 C5.15324727,17.3998355 4.86587167,17.3998355 4.68847937,17.5725329 Z" id="Path"></path>
            <path d="M23.5458756,10.6378701 L22.0167537,10.6378701 C21.7660392,10.6378701 21.5626294,10.8358964 21.5626294,11.0799753 C21.5626294,11.3240543 21.7660392,11.5220806 22.0167537,11.5220806 L23.5458756,11.5220806 C23.7965901,11.5220806 24,11.3240543 24,11.0799753 C24,10.8358964 23.7965901,10.6378701 23.5458756,10.6378701 Z" id="Path"></path>
            <path d="M1.98324632,10.6378701 L0.454124371,10.6378701 C0.203409875,10.6378701 0,10.8358964 0,11.0799753 C0,11.3240543 0.203409875,11.5220806 0.454124371,11.5220806 L1.98324626,11.5220806 C2.23396076,11.5220806 2.43737063,11.3240543 2.43737063,11.0799753 C2.43737063,10.8358964 2.23396082,10.6378701 1.98324632,10.6378701 Z" id="Path"></path>
            <path d="M19.3115206,17.5725329 C19.1341283,17.4001234 18.8467527,17.3995477 18.6693604,17.5725329 C18.491968,17.7449425 18.491968,18.025 18.6693604,18.1976974 L19.8431063,19.340954 C19.9318025,19.4273027 20.0476988,19.470477 20.1641864,19.470477 C20.2800828,19.470477 20.3965704,19.4273027 20.4852665,19.340954 C20.6626589,19.1685444 20.6626589,18.8884869 20.4852665,18.7157895 L19.3115206,17.5725329 Z" id="Path"></path>
            <path d="M4.68847937,4.58741779 C4.77717555,4.67376648 4.89307185,4.71694083 5.00955947,4.71694083 C5.12545582,4.71694083 5.24194345,4.67376648 5.33063957,4.58741779 C5.50803193,4.41472039 5.50803193,4.13495069 5.33063957,3.9622533 L4.15689367,2.81928451 C3.97950131,2.64658712 3.69212578,2.64658712 3.51473341,2.81928451 C3.33734105,2.99198191 3.33734105,3.2717516 3.51473341,3.444449 L4.68847937,4.58741779 Z" id="Path"></path>
        </g>
    </g>
</svg>