<?xml version="1.0" encoding="UTF-8"?>
<svg width="50px" height="50px" viewBox="0 0 50 50" version="1.1" xmlns="http://www.w3.org/2000/svg" xmlns:xlink="http://www.w3.org/1999/xlink">
    <title>Web/SVG/iot</title>
    <g id="Web/SVG/iot" stroke="none" stroke-width="1" fill="none" fill-rule="evenodd">
        <g id="Group-6" fill="#0C7DFF">
            <circle id="Oval" cx="25" cy="25" r="25"></circle>
        </g>
        <g id="Group" transform="translate(13, 13)" fill="#FFFFFF" fill-rule="nonzero">
            <path d="M23.847005,11.6532236 L21.7606382,9.56284907 C21.7601165,9.56284907 21.7601165,9.56232635 21.7595948,9.56232635 L12.3691184,0.153288902 C12.1651251,-0.0510963006 11.8353967,-0.0510963006 11.6314033,0.153288902 L2.2404052,9.56232635 C2.2404052,9.56232635 2.2404052,9.56232635 2.23988348,9.56284907 L0.152995011,11.6537463 C-0.050998337,11.8581315 -0.050998337,12.1884932 0.152995011,12.3928784 C0.356988359,12.5972637 0.686716737,12.5972637 0.890710086,12.3928784 L2.08754062,11.1937489 L2.08754062,21.4318271 C2.08754062,22.2964131 2.78977859,23 3.65270698,23 L20.3478147,23 C21.2107431,23 21.9129811,22.2964131 21.9129811,21.4318271 L21.9129811,11.1937489 L23.1092899,12.3923557 C23.2110257,12.494287 23.3445866,12.5455139 23.4781475,12.5455139 C23.6117083,12.5455139 23.7452692,12.494287 23.847005,12.3923557 C24.0509983,12.1879705 24.0509983,11.8576088 23.847005,11.6532236 Z M20.8695369,21.4318271 C20.8695369,21.7203709 20.6358054,21.9545514 20.3478147,21.9545514 L3.65270698,21.9545514 C3.36523809,21.9545514 3.13098486,21.7203709 3.13098486,21.4318271 L3.13098486,10.1483003 L12.0002609,1.26198715 L20.8695369,10.1483003 L20.8695369,21.4318271 Z" id="Shape" stroke="#FFFFFF" stroke-width="1.5"></path>
            <path d="M10.0232426,15.3310096 C9.65891914,15.6827109 9.65891914,16.2511895 10.0232426,16.6028908 C10.2049384,16.7782916 10.4434724,16.8664418 10.6820064,16.8664418 C10.9205404,16.8664418 11.1590744,16.7782916 11.3407703,16.6028908 C11.6929806,16.2637824 12.3070194,16.2619834 12.658298,16.6028908 C13.0226214,16.954592 13.612434,16.954592 13.9767574,16.6028908 C14.3410809,16.252089 14.3410809,15.6827109 13.9767574,15.3310096 C12.9210581,14.3118857 11.0798737,14.3118857 10.0232426,15.3310096 Z" id="Path"></path>
            <path d="M7.75107895,13.5607131 C7.91846491,13.7198297 8.13821264,13.799796 8.35796037,13.799796 C8.5777081,13.799796 8.79745583,13.7198297 8.96484179,13.5607131 C9.77601993,12.7904255 10.8541572,12.3652986 12.0001073,12.3652986 C13.1460574,12.3652986 14.2233363,12.7904255 15.0345144,13.5607131 C15.3701447,13.8797623 15.9126469,13.8797623 16.2482773,13.5607131 C16.5839076,13.2424799 16.5839076,12.7259629 16.2482773,12.4069137 C15.1143446,11.3281847 13.6052958,10.7333333 12.0001073,10.7333333 C10.3949188,10.7333333 8.88586995,11.3281847 7.75107895,12.4069137 C7.41630702,12.7251469 7.41630702,13.2416639 7.75107895,13.5607131 Z" id="Path"></path>
        </g>
    </g>
</svg>