<?xml version="1.0" encoding="UTF-8"?>
<svg width="50px" height="50px" viewBox="0 0 50 50" version="1.1" xmlns="http://www.w3.org/2000/svg" xmlns:xlink="http://www.w3.org/1999/xlink">
    <title>Web/SVG/ml</title>
    <g id="Web/SVG/ml" stroke="none" stroke-width="1" fill="none" fill-rule="evenodd">
        <g id="Group-6" fill="#0C7DFF">
            <circle id="Oval" cx="25" cy="25" r="25"></circle>
        </g>
        <g id="Group" transform="translate(12, 12)" fill="#FFFFFF" fill-rule="nonzero" stroke="#FFFFFF" stroke-width="0.756">
            <path d="M5.1588,15.66 C4.6863,15.43185 4.1589,15.3 3.6,15.3 C1.61505,15.3 0,16.91505 0,18.9 C0,20.88495 1.61505,22.5 3.6,22.5 C4.8456,22.5 5.94495,21.8637 6.5916,20.89935 L9.99225,22.6017 C9.93375,22.85865 9.9,23.1255 9.9,23.4 C9.9,25.38495 11.51505,27 13.5,27 C15.48495,27 17.1,25.38495 17.1,23.4 C17.1,22.6539 16.87185,21.96045 16.48125,21.3849 L21.2598,16.38855 C21.8592,16.83315 22.5981,17.1 23.4,17.1 C25.38495,17.1 27,15.48495 27,13.5 C27,11.51505 25.38495,9.9 23.4,9.9 C22.5693,9.9 21.8061,10.1853 21.1959,10.6596 L16.3404,5.8041 C16.8147,5.1939 17.1,4.4307 17.1,3.6 C17.1,1.61505 15.48495,0 13.5,0 C11.51505,0 9.9,1.61505 9.9,3.6 C9.9,3.8736 9.9333,4.13955 9.9918,4.39605 L6.8004,5.55885 C6.2019,4.3974 4.99365,3.6 3.6,3.6 C1.61505,3.6 0,5.21505 0,7.2 C0,9.18495 1.61505,10.8 3.6,10.8 C4.1121,10.8 4.59855,10.6911 5.04,10.49715 L6.69645,13.2849 L5.1588,15.66 Z M3.6,21.6 C2.11095,21.6 0.9,20.38905 0.9,18.9 C0.9,17.41095 2.11095,16.2 3.6,16.2 C5.08905,16.2 6.3,17.41095 6.3,18.9 C6.3,20.38905 5.08905,21.6 3.6,21.6 Z M6.99255,20.09295 C7.1244,19.719 7.2,19.3185 7.2,18.9 C7.2,17.79615 6.6996,16.80795 5.91525,16.14735 L7.20945,14.14845 L11.1114,20.7144 C10.7829,21.0069 10.50795,21.357 10.3041,21.75075 L6.99255,20.09295 Z M13.5,7.2 C14.3307,7.2 15.0939,6.9147 15.7041,6.4404 L20.56005,11.29635 C20.2689,11.67075 20.0511,12.1032 19.92555,12.5739 L17.09865,12.1851 C17.0982,12.1734 17.1,12.1617 17.1,12.15 C17.1,10.16505 15.48495,8.55 13.5,8.55 C12.2544,8.55 11.1546,9.1863 10.5084,10.15065 L9.97155,9.88245 L11.94165,6.84 C12.4137,7.06815 12.9411,7.2 13.5,7.2 Z M13.95,19.83105 L13.95,15.7185 C15.4125,15.5349 16.6023,14.472 16.9749,13.0761 L19.8018,13.4649 C19.8018,13.4766 19.8,13.4883 19.8,13.5 C19.8,14.3595 20.1033,15.14835 20.60775,15.768 L15.88275,20.70855 C15.3531,20.2392 14.68665,19.92375 13.95,19.83105 Z M13.5,9.45 C14.98905,9.45 16.2,10.66095 16.2,12.15 C16.2,13.63905 14.98905,14.85 13.5,14.85 C12.01095,14.85 10.8,13.63905 10.8,12.15 C10.8,10.66095 12.01095,9.45 13.5,9.45 Z M10.10745,10.95705 C9.9756,11.331 9.9,11.7315 9.9,12.15 C9.9,13.9824 11.277,15.4962 13.05,15.71895 L13.05,19.8315 C12.6234,19.88505 12.22065,20.01285 11.8539,20.2023 L7.7553,13.30515 L9.47925,10.64295 L10.10745,10.95705 Z M13.5,26.1 C12.01095,26.1 10.8,24.88905 10.8,23.4 C10.8,21.91095 12.01095,20.7 13.5,20.7 C14.98905,20.7 16.2,21.91095 16.2,23.4 C16.2,24.88905 14.98905,26.1 13.5,26.1 Z M23.4,10.8 C24.88905,10.8 26.1,12.01095 26.1,13.5 C26.1,14.98905 24.88905,16.2 23.4,16.2 C21.91095,16.2 20.7,14.98905 20.7,13.5 C20.7,12.01095 21.91095,10.8 23.4,10.8 Z M13.5,0.9 C14.98905,0.9 16.2,2.11095 16.2,3.6 C16.2,5.08905 14.98905,6.3 13.5,6.3 C12.01095,6.3 10.8,5.08905 10.8,3.6 C10.8,2.11095 12.01095,0.9 13.5,0.9 Z M10.2996,5.24115 C10.51965,5.6682 10.8207,6.04575 11.18475,6.35265 L9.16155,9.47745 L6.99255,8.39295 C7.1244,8.019 7.2,7.6185 7.2,7.2 C7.2,6.9264 7.1667,6.66045 7.1082,6.40395 L10.2996,5.24115 Z M0.9,7.2 C0.9,5.71095 2.11095,4.5 3.6,4.5 C5.08905,4.5 6.3,5.71095 6.3,7.2 C6.3,8.68905 5.08905,9.9 3.6,9.9 C2.11095,9.9 0.9,8.68905 0.9,7.2 Z M5.81175,10.03455 C6.11325,9.79875 6.37785,9.51795 6.5916,9.19935 L8.66925,10.23795 L7.2423,12.4416 L5.81175,10.03455 Z" id="Shape"></path>
        </g>
    </g>
</svg>