<?xml version="1.0" encoding="UTF-8"?>
<svg width="107px" height="34px" viewBox="0 0 107 34" version="1.1" xmlns="http://www.w3.org/2000/svg" xmlns:xlink="http://www.w3.org/1999/xlink">
    <title>Web/SVG/Logo/paytm</title>
    <g id="Web/SVG/Logo/paytm" stroke="none" stroke-width="1" fill="none" fill-rule="evenodd">
        <g id="Group" fill="#647C85" fill-rule="nonzero">
            <path d="M83.7581117,7.18080444 C84.2007089,6.83183704 84.4220075,6.65735333 84.6433062,6.48286963 C87.7193571,3.90923505 91.6584727,4.19277106 94.2919263,7.24623582 C94.5574847,7.5515823 94.6902639,7.57339276 94.9558222,7.31166721 C95.1328611,7.11537305 95.3320299,6.96269981 95.5090688,6.76640565 C97.567146,4.78165355 100.289119,4.19277106 102.834053,5.30510465 C105.511767,6.48286963 106.950208,8.55486358 106.972338,11.4556551 C107.016597,17.7152579 106.994468,23.9530502 106.994468,30.2126529 C106.994468,32.4373201 105.600286,33.8331897 103.36517,33.8331897 C102.479976,33.8331897 101.594781,33.7677584 100.709587,33.8550002 C99.8022621,33.9422421 99.5367038,33.658706 99.5367038,32.7208561 C99.5809635,26.6139266 99.5588337,20.5069971 99.5588337,14.4000676 C99.5588337,14.138342 99.5588337,13.8984269 99.5588337,13.6367014 C99.5367038,12.2190213 98.9613274,11.6301388 97.5892759,11.5647074 C96.3500036,11.499276 95.4869389,12.2408318 95.3541597,13.4840281 C95.3320299,13.7675641 95.3541597,14.0729106 95.3541597,14.3564466 C95.3541597,19.6345786 95.3541597,24.8909001 95.3541597,30.169032 C95.3541597,32.4809411 94.0042381,33.8331897 91.6584727,33.8113793 C90.4634601,33.7895688 88.8479801,34.3348304 88.1619543,33.5714642 C87.5644481,32.9171503 87.9627856,31.3686075 87.9627856,30.2126529 C87.9627856,24.8036582 87.9627856,19.372853 87.9627856,13.9638583 C87.9627856,12.0445376 86.7013834,11.0630668 85.0637736,11.7173807 C84.0457999,12.1317794 83.7138519,12.9387666 83.7138519,13.9856688 C83.7359818,19.0456961 83.7138519,24.083913 83.7138519,29.1439403 C83.7138519,29.5365286 83.7138519,29.9509274 83.7138519,30.3435157 C83.6474623,32.4591306 82.2754109,33.7895688 80.150944,33.8113793 C79.2657495,33.8331897 78.380555,33.7459479 77.4953605,33.8331897 C76.5437764,33.9204316 76.2560882,33.658706 76.2782181,32.6554248 C76.3224778,24.083913 76.3003479,15.5124012 76.3003479,6.91907889 C76.3003479,6.54830102 76.3224778,6.19933362 76.3003479,5.82855576 C76.2560882,5.34872558 76.455257,5.19605234 76.9421139,5.19605234 C78.9780613,5.2178628 80.9918788,5.2178628 83.0278262,5.19605234 C83.536813,5.19605234 83.7802415,5.32691512 83.7359818,5.87217668 C83.6917221,6.26476501 83.7359818,6.61373241 83.7581117,7.18080444 Z" id="Path"></path>
            <path d="M36.8428027,19.0020752 C36.8428027,21.9901085 36.8428027,24.9563315 36.8428027,27.9443648 C36.8206728,31.8266272 34.7625956,33.8331897 30.82348,33.8550002 C29.0973507,33.8550002 27.3490915,33.8768107 25.6229623,33.8550002 C22.1264439,33.8113793 19.5593799,31.5212807 19.382341,28.0752276 C19.2495618,25.6106453 19.2274319,23.1242526 19.3602111,20.6596703 C19.53725,17.1263754 22.281353,14.6399826 25.9106505,14.5963617 C26.8622346,14.5745513 27.8359485,14.5963617 28.7875326,14.5963617 C29.7169869,14.5745513 30.0710647,14.0511002 30.0489348,13.1786817 C30.0489348,12.3062631 29.6505973,11.9136748 28.7654028,11.9572957 C27.7695589,11.9791062 26.7737151,11.9791062 25.7778713,11.9572957 C23.3435864,11.9136748 21.9936648,10.6050471 22.0157946,8.2495171 C22.0157946,7.28985675 21.5731974,6.00303946 22.2149634,5.43596743 C22.76821,4.95613725 24.0296121,5.26148373 24.9811962,5.26148373 C27.4597409,5.23967326 29.9161556,5.26148373 32.3947003,5.26148373 C35.0281539,5.26148373 36.8206728,7.0281312 36.8428027,9.64538671 C36.8649325,12.7424724 36.8428027,15.883179 36.8428027,19.0020752 Z M30.0710647,23.9530502 C30.0710647,23.5822723 30.0710647,23.2333049 30.0710647,22.8625271 C30.0710647,20.6378599 30.0710647,20.6378599 27.8138187,20.7251017 C26.6851957,20.7687226 26.0655595,21.3357947 26.0434296,22.4917492 C26.0212998,23.4077886 26.0212998,24.3020176 26.0434296,25.218057 C26.0655595,26.7884103 26.7737151,27.2028091 29.0752208,27.2682405 C30.7792203,27.3118614 29.9161556,26.1340964 30.0710647,25.4797826 C30.1595841,24.9999524 30.0489348,24.4546908 30.0710647,23.9530502 Z" id="Shape"></path>
            <path d="M56.5383805,16.6247347 C56.5383805,19.9617355 56.5826402,23.3205468 56.5162506,26.6575475 C56.4719909,29.2311821 55.8523548,31.5649016 53.3295504,32.9389608 C52.3115767,33.4842223 51.2050836,33.7895688 50.0543307,33.8113793 C47.5093965,33.8550002 44.9644623,33.8113793 42.4195281,33.8550002 C41.7998919,33.8550002 41.6671127,33.6368956 41.6892426,33.091634 C41.7335023,32.1755946 41.6671127,31.2813656 41.7113725,30.3653262 C41.7556322,28.6204892 43.1055538,27.290051 44.8759428,27.2246196 C46.0266957,27.1809986 47.1553187,27.2028091 48.3060716,27.2246196 C49.2355258,27.2246196 49.7445126,26.8538417 49.7445126,25.8723709 C49.7445126,24.8690896 49.2576557,24.5201222 48.3282014,24.4983117 C46.779111,24.4546908 45.2300206,24.6727954 43.7030601,24.2365862 C41.0696064,23.47322 39.1443084,21.3139842 39.0779188,18.6312973 C38.9451396,14.3782571 39.0336591,10.1252169 39.0115292,5.87217668 C39.0115292,5.3923465 39.1664382,5.23967326 39.6532952,5.26148373 C41.467944,5.28329419 43.2604629,5.30510465 45.0751116,5.26148373 C45.8717867,5.23967326 45.7611373,5.67588252 45.7611373,6.15571269 C45.7611373,9.3618507 45.7611373,12.5461782 45.7611373,15.7523162 C45.7611373,17.1481858 46.4250332,17.8897416 47.6643055,17.9333625 C49.1248765,17.9769834 49.7666425,17.3881009 49.7666425,15.9267999 C49.7666425,12.6988515 49.7887724,9.44909255 49.7445126,6.22114408 C49.7445126,5.45777789 49.9436814,5.23967326 50.7182266,5.26148373 C52.3337066,5.32691512 53.9713164,5.34872558 55.5867964,5.26148373 C56.4719909,5.2178628 56.6047701,5.54501974 56.5826402,6.30838593 C56.5162506,9.73262856 56.5383805,13.1786817 56.5383805,16.6247347 Z" id="Path"></path>
            <path d="M0.151490246,21.5757098 C0.151490246,18.0206044 0.151490246,14.4436885 0.151490246,10.8885831 C0.151490246,7.39890906 2.32021679,5.2178628 5.88312469,5.26148373 C8.20676028,5.28329419 10.5303959,4.99975818 12.8319016,5.43596743 C15.7751733,6.00303946 17.6340818,8.2495171 17.6562117,11.2375505 C17.6783415,14.4000676 17.6562117,17.5625846 17.6562117,20.7251017 C17.6562117,24.6946059 15.2883164,27.1155673 11.2606813,27.2246196 C10.0435389,27.2682405 8.82639644,27.24643 7.60925399,27.2246196 C7.05600742,27.2028091 6.81257893,27.3772928 6.83470879,27.9661753 C6.87896852,28.8385938 6.85683866,29.7110123 6.83470879,30.5834308 C6.79044907,32.4591306 5.44052744,33.8113793 3.55948911,33.8331897 C2.45299597,33.8550002 1.05881462,34.2912095 0.350659011,33.658706 C-0.313236871,33.0698235 0.173620109,31.6739539 0.151490246,30.6270517 C0.129360384,27.6172079 0.151490246,24.5855536 0.151490246,21.5757098 Z M6.83470879,16.2321464 C6.83470879,16.9300812 6.83470879,17.6062056 6.83470879,18.3041404 C6.83470879,20.7687226 6.83470879,20.7687226 9.33538328,20.550618 C10.4197466,20.4633762 10.9287334,19.9399251 10.9508633,18.8712124 C10.9729931,17.6498265 10.9066035,16.4066301 10.9729931,15.1852442 C11.1057723,11.6519493 10.4418764,12.0009167 7.52073454,11.9791062 C6.98961783,11.9791062 6.81257893,12.1317794 6.81257893,12.6552306 C6.85683866,13.8329955 6.83470879,15.032571 6.83470879,16.2321464 Z" id="Shape"></path>
            <path d="M62.8011317,21.6193307 C62.8011317,18.7185392 62.7790018,15.7959372 62.8232615,12.8951456 C62.8232615,12.2190213 62.6683525,11.9354853 61.9159371,11.9572957 C60.9200933,12.0009167 59.5923016,12.2844527 59.039055,11.8046225 C58.3530292,11.1721191 58.8841459,9.81987041 58.7956265,8.77296821 C58.7956265,8.70753682 58.7956265,8.62029497 58.7956265,8.55486358 C58.7956265,7.52977184 58.4636786,6.3301964 58.9062758,5.5668302 C59.3488731,4.80346401 60.6987947,5.28329419 61.6503788,5.0433791 C63.5314171,4.56354892 64.9477283,3.49483626 66.0984812,2.0117248 C66.8951563,1.00844352 67.8910001,0.288698254 69.1745321,0.0487831649 C69.8605579,-0.0820796108 70.2810253,0.00516223967 70.2367655,0.877580744 C70.1703759,2.09896665 70.2367655,3.34216302 70.2146357,4.58535939 C70.1925058,5.10881049 70.3916746,5.28329419 70.9227913,5.26148373 C71.8079858,5.23967326 72.6931803,5.28329419 73.5783748,5.23967326 C74.1094915,5.2178628 74.2865304,5.41415697 74.2644005,5.93760807 C74.2422707,7.726066 74.2422707,9.49271347 74.2644005,11.2811714 C74.2644005,11.782812 74.1316214,12.0445376 73.5783748,11.9791062 C73.4677255,11.9572957 73.3570762,11.9791062 73.2464269,11.9791062 C72.2727129,12.0663481 70.9227913,11.542897 70.4138044,12.1972108 C69.9269475,12.8079038 70.2367655,14.0729106 70.2367655,15.0543814 C70.2367655,20.9868273 70.2146357,26.8974626 70.2588954,32.8299085 C70.2588954,33.658706 70.0375968,33.9204316 69.196662,33.8550002 C68.3999869,33.7895688 67.581182,33.8550002 66.7623771,33.8331897 C64.3723519,33.7459479 62.8011317,32.1537841 62.8011317,29.7982542 C62.8011317,27.0719463 62.8011317,24.3456385 62.8011317,21.6193307 Z" id="Path"></path>
        </g>
    </g>
</svg>