<?xml version="1.0" encoding="UTF-8"?>
<svg width="900px" height="411px" viewBox="0 0 900 411" version="1.1" xmlns="http://www.w3.org/2000/svg" xmlns:xlink="http://www.w3.org/1999/xlink">
    <title>Web/SVG/banner</title>
    <defs>
        <rect id="path-1" x="0" y="0" width="900" height="410"></rect>
        <filter x="-41.8%" y="-41.8%" width="183.6%" height="183.6%" filterUnits="objectBoundingBox" id="filter-3">
            <feGaussianBlur stdDeviation="50" in="SourceGraphic"></feGaussianBlur>
        </filter>
        <linearGradient x1="7.40310533%" y1="64.148458%" x2="92.5968947%" y2="56.5554304%" id="linearGradient-4">
            <stop stop-color="#FCD43B" offset="0%"></stop>
            <stop stop-color="#FC943B" offset="100%"></stop>
        </linearGradient>
    </defs>
    <g id="Web/SVG/banner" stroke="none" stroke-width="1" fill="none" fill-rule="evenodd">
        <g id="banner-1">
            <g id="Oval">
                <mask id="mask-2" fill="white">
                    <use xlink:href="#path-1"></use>
                </mask>
                <use id="Mask" fill="#FC943B" xlink:href="#path-1"></use>
                <circle fill="#FCC53B" opacity="0.697195871" filter="url(#filter-3)" mask="url(#mask-2)" cx="215.5" cy="497.5" r="179.5"></circle>
            </g>
            <path d="M499.053562,207.736842 C499.053562,249.249301 499.053562,278.726105 499.053562,306.346347 C499.053562,347.667881 529.757787,398.836357 590.471053,398.836357 C651.18432,398.836357 681.923005,348.71736 682.421983,306.346347 C682.421983,278.907122 681.923005,244.46222 681.923005,207.736842 C682.161587,194.870104 682.421983,164.899852 682.421983,101 C682.421983,77.7562998 710.858512,23 763.843035,23 C816.827559,23 845.95233,81.3373297 845.95233,105.789474 C845.95233,155.801113 845.95233,210.171017 845.95233,268.899186" id="Path-3" stroke="url(#linearGradient-4)" stroke-width="52" transform="translate(672.5029, 210.9182) rotate(90) translate(-672.5029, -210.9182)"></path>
        </g>
    </g>
</svg>