<?xml version="1.0" encoding="UTF-8"?>
<svg width="50px" height="50px" viewBox="0 0 50 50" version="1.1" xmlns="http://www.w3.org/2000/svg" xmlns:xlink="http://www.w3.org/1999/xlink">
    <title>Web/SVG/software</title>
    <g id="Web/SVG/software" stroke="none" stroke-width="1" fill="none" fill-rule="evenodd">
        <g id="Group-6" fill="#0C7DFF">
            <circle id="Oval" cx="25" cy="25" r="25"></circle>
        </g>
        <g id="Group" transform="translate(12, 14)" fill="#FFFFFF" fill-rule="nonzero" stroke="#FFFFFF" stroke-width="0.884210526">
            <path d="M23.8020042,0 C24.7521542,0 25.5253728,0.760540541 25.5253728,1.69589189 L25.5253728,14.7647027 C25.5259463,15.0768649 25.26859,15.3294324 24.9514904,15.3294324 C24.6338163,15.3294324 24.3770345,15.0768649 24.3770345,14.7641351 L24.3770345,1.69589189 C24.3770345,1.3842973 24.1196783,1.13059459 23.8025787,1.13059459 L3.19684688,1.13059459 C2.8803217,1.13059459 2.62239101,1.3842973 2.62239101,1.69589189 L2.62239101,14.7647027 C2.62239101,15.0768649 2.36503479,15.33 2.04793515,15.33 C1.73083551,15.33 1.47347929,15.0774324 1.47347929,14.7647027 L1.47347929,1.69589189 C1.47347929,0.761108108 2.24669688,0 3.19684688,0 L23.8020042,0 Z M14.2953341,3.33105405 C15.0938278,3.33105405 15.7429629,3.96956757 15.7429629,4.75508108 L15.7429629,5.42197297 C15.7429629,5.53945946 15.8222378,5.64786486 15.9451714,5.69724324 C16.0790196,5.75172973 16.2082722,5.73186486 16.2921427,5.64843243 L16.7735367,5.17508108 C17.3376524,4.62 18.2556329,4.62056757 18.820323,5.17508108 L19.9439586,6.2807027 C20.5074998,6.83578378 20.5074998,7.73935135 19.9439586,8.29386486 L19.4625646,8.76721622 C19.3792685,8.84837838 19.3580137,8.97835135 19.4079913,9.09754054 C19.4637135,9.22978378 19.5734346,9.30810811 19.6929214,9.30810811 L20.3702049,9.30810811 C21.1686985,9.30810811 21.8178337,9.94662162 21.8178337,10.7315676 L21.8178337,12.2952162 C21.8178337,13.0801622 21.1686985,13.7186757 20.3702049,13.7186757 L19.6929214,13.7186757 C19.5809025,13.7186757 19.476926,13.7879189 19.4223527,13.8957568 L19.4028212,13.9405946 C19.3574392,14.0501351 19.3781196,14.1761351 19.4625646,14.259 C19.6871769,14.4797838 19.6871769,14.8373514 19.4625646,15.0581351 C19.3482479,15.1671081 19.2011872,15.2221622 19.0541265,15.2221622 C18.9070658,15.2221622 18.7600051,15.1671081 18.6479862,15.0564324 C18.2361014,14.6511892 18.1166145,14.0393514 18.3435246,13.4973243 C18.5761792,12.939973 19.1035297,12.5863784 19.6911981,12.5863784 L20.3684815,12.5863784 C20.5327759,12.5863784 20.6671986,12.4552703 20.6671986,12.2935135 L20.6671986,10.7298649 C20.6671986,10.5681081 20.5333504,10.437 20.3684815,10.437 L19.6911981,10.437 C19.1029553,10.437 18.5761792,10.0834054 18.3481203,9.5357027 C18.117189,8.98402703 18.2366758,8.37162162 18.6479862,7.96694595 L19.1293802,7.49359459 C19.2454203,7.37951351 19.2454203,7.19278378 19.1293802,7.0787027 L18.0057446,5.97364865 C17.88913,5.85956757 17.7007085,5.859 17.584094,5.97364865 L17.1026999,6.447 C16.6908151,6.85224324 16.0681049,6.96916216 15.5177762,6.74610811 C14.9519372,6.51737838 14.5929023,5.99918919 14.5929023,5.42083784 L14.5929023,4.75394595 C14.5929023,4.59218919 14.4590541,4.46051351 14.2941852,4.46051351 L12.7052403,4.46051351 C12.5409459,4.46051351 12.4070977,4.59218919 12.4070977,4.75394595 L12.4070977,5.42027027 C12.4070977,5.99805405 12.0480628,6.51681081 11.4919895,6.74156757 C10.9301717,6.96972973 10.3086105,6.85224324 9.8967256,6.447 L9.41533159,5.97364865 C9.2992915,5.85956757 9.10972107,5.85956757 8.99368099,5.97364865 L7.87004532,7.0787027 C7.81374864,7.13432432 7.78272803,7.20810811 7.78272803,7.28643243 C7.78272803,7.36475676 7.81374864,7.43797297 7.87004532,7.49359459 L8.35143933,7.96751351 C8.76389864,8.37332432 8.882811,8.98572973 8.65532648,9.52775676 C8.42267186,10.0845405 7.89589583,10.4375676 7.30880194,10.4375676 L6.63094402,10.4375676 C6.46664965,10.4375676 6.33280143,10.5686757 6.33280143,10.7304324 L6.33280143,12.2940811 C6.33280143,12.4558378 6.46607519,12.5869459 6.63094402,12.5869459 L7.30880194,12.5869459 C7.89589583,12.5869459 8.42267186,12.939973 8.65130529,13.4871081 C8.882811,14.0387838 8.76389864,14.6511892 8.35201379,15.057 C8.12740154,15.2777838 7.76377098,15.2777838 7.5397332,15.057 C7.31512095,14.8367838 7.31512095,14.4786486 7.53915874,14.2578649 C7.6230293,14.175 7.64428416,14.049 7.59373205,13.9286757 C7.53800983,13.7958649 7.42828876,13.7175405 7.30880194,13.7175405 L6.63094402,13.7175405 C5.83302483,13.7175405 5.1838897,13.079027 5.1838897,12.2940811 L5.1838897,10.7304324 C5.1838897,9.94548649 5.83302483,9.30697297 6.63094402,9.30697297 L7.30880194,9.30697297 C7.42828876,9.30697297 7.53800983,9.22864865 7.58856195,9.10775676 C7.64313525,8.97721622 7.62188039,8.84781081 7.53915874,8.76664865 L7.05833918,8.2932973 C6.78489819,8.02483784 6.63439076,7.66727027 6.63439076,7.287 C6.63439076,6.90672973 6.78489819,6.54916216 7.05833918,6.28013514 L8.18197485,5.17508108 C8.72828238,4.63702703 9.68187911,4.63702703 10.2287611,5.17508108 L10.7101551,5.64843243 C10.7923023,5.72902703 10.9238527,5.74945946 11.0450629,5.70178378 C11.18006,5.6472973 11.2593349,5.53889189 11.2593349,5.42140541 L11.2593349,4.75508108 C11.2593349,3.97013514 11.90847,3.33105405 12.7063892,3.33105405 L14.2953341,3.33105405 Z M13.4997128,8.73202703 C15.0570626,8.73202703 16.3243122,9.97840541 16.3243122,11.5114054 C16.3243122,13.0438378 15.0570626,14.2907838 13.4997128,14.2907838 C11.9423629,14.2907838 10.6751133,13.0438378 10.6751133,11.5114054 C10.6751133,9.97897297 11.9423629,8.73202703 13.4997128,8.73202703 Z M13.4997128,9.86318919 C12.5759877,9.86318919 11.824025,10.6027297 11.824025,11.511973 C11.824025,12.4212162 12.5754133,13.1607568 13.4997128,13.1607568 C14.4240123,13.1607568 15.1754005,12.4212162 15.1754005,11.511973 C15.1754005,10.6027297 14.4234378,9.86318919 13.4997128,9.86318919 Z M25.9585115,16.460027 C26.5323929,16.460027 27,16.9197568 27,17.4844865 L27,17.8204865 C26.9994255,19.5737027 25.5500734,21 23.7681113,21 L3.23131423,21 C1.44935214,21 0,19.5737027 0,17.8204865 L0,17.4844865 C0,16.9197568 0.467032616,16.460027 1.04148848,16.460027 L25.9585115,16.460027 Z M25.8505138,17.5906216 L1.14891173,17.5906216 L1.14891173,17.8210541 C1.14891173,18.9510811 2.08297696,19.869973 3.23131423,19.869973 L23.7681113,19.869973 C24.9164486,19.869973 25.8505138,18.9510811 25.8505138,17.8210541 L25.8505138,17.5906216 Z M15.7975362,18.1644324 C16.1152103,18.1644324 16.3719921,18.417 16.3719921,18.7297297 C16.3719921,19.0424595 16.1152103,19.295027 15.7975362,19.295027 L11.2018893,19.295027 C10.8847897,19.295027 10.6274335,19.0424595 10.6274335,18.7297297 C10.6274335,18.4175676 10.8847897,18.1644324 11.2018893,18.1644324 L15.7975362,18.1644324 Z" id="Combined-Shape"></path>
        </g>
    </g>
</svg>